<svg width="83" height="18" viewBox="0 0 83 18" fill="none" xmlns="http://www.w3.org/2000/svg">
<path d="M7.2153 0.494472H15.2543L17.8506 17H12.5746L12.0742 13.7469H6.86079L5.54703 17H0.271095L7.2153 0.494472ZM8.77931 9.53445H11.2817L11.0106 5.22821C10.955 4.96407 10.9203 4.66169 10.9064 4.32108C10.8994 3.98048 10.9133 3.66768 10.9481 3.38268L11.0002 2.99689H10.6874L10.6457 3.38268C10.6109 3.67463 10.5449 3.99091 10.4476 4.33151C10.3503 4.66517 10.2391 4.96754 10.1139 5.23864L8.77931 9.53445ZM24.0783 17H19.0317L21.0337 0.494472H26.0906L25.5172 5.29077C25.5172 5.34638 25.4928 5.39156 25.4442 5.42632L24.2242 6.2396L24.4328 6.40643L24.5892 6.31259C24.8742 6.09016 25.2113 5.87119 25.6006 5.65571C26.8865 4.93974 28.3602 4.58175 30.0215 4.58175C30.1327 4.58175 30.2405 4.58175 30.3447 4.58175C32.3814 4.65126 33.7404 5.12394 34.4216 5.99979C35.1098 6.86868 35.4538 7.98782 35.4538 9.3572C35.4538 9.80903 35.4226 10.2921 35.36 10.8065C35.1028 12.8988 34.4598 14.4559 33.4311 15.4777C32.4023 16.4995 30.8626 17.0348 28.812 17.0834C28.7147 17.0834 28.6209 17.0834 28.5305 17.0834C26.8483 17.0834 25.4477 16.7254 24.3285 16.0095C23.9532 15.7662 23.6404 15.5229 23.3901 15.2796L23.3588 15.2587L23.1294 15.436L24.1096 16.218C24.1582 16.2528 24.1756 16.3014 24.1617 16.364L24.0783 17ZM25.4025 13.2777C25.9516 13.5766 26.5981 13.726 27.3418 13.726C28.3637 13.726 29.0623 13.5835 29.4376 13.2985C29.813 13.0066 30.0806 12.1828 30.2405 10.8274C30.303 10.3477 30.3343 9.93762 30.3343 9.59702C30.3343 8.97141 30.2092 8.54391 29.959 8.31453C29.7087 8.07819 29.0727 7.96002 28.0509 7.96002C27.3071 7.96002 26.6259 8.10599 26.0072 8.39794C25.4303 8.66904 25.0688 9.24946 24.9228 10.1392L24.7456 11.5572C24.7386 11.6615 24.7352 11.7623 24.7352 11.8596C24.7352 12.5617 24.9576 13.0344 25.4025 13.2777ZM43.7731 17.1043C41.4444 17.1043 39.6476 16.6385 38.3825 15.7071C37.1243 14.7687 36.4952 13.4619 36.4952 11.7866C36.4952 11.4599 36.5161 11.1158 36.5578 10.7544C36.8219 8.57172 37.7638 6.99033 39.3834 6.01022C41.01 5.02315 42.9876 4.52962 45.3162 4.52962C47.6449 4.52962 49.4418 4.98144 50.7069 5.8851C51.972 6.78875 52.6045 8.07124 52.6045 9.73256C52.6045 10.0523 52.5837 10.3929 52.542 10.7544C52.2709 12.9509 51.322 14.5601 49.6955 15.582C48.0758 16.5968 46.1017 17.1043 43.7731 17.1043ZM44.1902 13.7886C45.0382 13.7886 45.7576 13.6495 46.3485 13.3715C46.9463 13.0865 47.3321 12.2246 47.5059 10.7857C47.5545 10.4242 47.5788 10.101 47.5788 9.81598C47.5788 8.97489 47.346 8.43617 46.8802 8.19983C46.4215 7.96349 45.7681 7.84532 44.92 7.84532C44.065 7.84532 43.3386 7.98087 42.7408 8.25197C42.143 8.52306 41.7572 9.36763 41.5835 10.7857C41.5418 11.1402 41.5209 11.4599 41.5209 11.7449C41.5209 12.6138 41.7503 13.1734 42.2091 13.4236C42.6748 13.6669 43.3352 13.7886 44.1902 13.7886ZM58.7969 10.6188C58.7274 11.2097 58.6926 11.7032 58.6926 12.0994C58.6926 12.7042 58.8003 13.1247 59.0158 13.3611C59.2313 13.5974 59.6762 13.7156 60.3505 13.7156C61.1151 13.7156 61.8171 13.4862 62.4567 13.0274C62.9571 12.659 63.3047 12.0682 63.4993 11.2549L64.3126 4.66517H69.3592L67.8473 17H63.0197L63.1344 16.0512C63.1344 15.9956 63.1587 15.9504 63.2074 15.9156L64.3126 14.9564L64.1249 14.7791L63.9164 14.9147C63.8469 14.9842 63.7774 15.0537 63.7079 15.1232C62.3385 16.4439 60.4825 17.1043 58.14 17.1043C56.2771 17.1043 55.0571 16.6316 54.4802 15.6862C53.9102 14.7409 53.6252 13.6391 53.6252 12.381C53.6252 11.9291 53.6565 11.446 53.719 10.9316L54.4906 4.67559H59.5267L58.7969 10.6188ZM76.5267 17C74.3163 17 72.9365 16.6976 72.3873 16.0929C71.8382 15.4881 71.5636 14.7165 71.5636 13.7781C71.5636 13.5279 71.581 13.2603 71.6157 12.9753L72.1996 8.21026H70.1351L70.5626 4.67559H71.1153C71.4489 4.67559 71.7513 4.61651 72.0224 4.49834C72.2935 4.38017 72.5298 4.21682 72.7314 4.00828C72.9399 3.7928 73.1068 3.5356 73.2319 3.2367C73.364 2.93085 73.4508 2.5972 73.4925 2.23574L73.7011 0.494472H78.7685L78.5599 2.23574C78.5182 2.59025 78.4452 2.90305 78.341 3.17414C78.2367 3.43829 78.0942 3.66072 77.9135 3.84145C77.7328 4.01523 77.5103 4.14731 77.2462 4.23767C76.982 4.32109 76.6623 4.36279 76.2869 4.36279L76.2452 4.67559H82.47L82.032 8.21026H77.2462L76.7874 11.8805C76.7804 11.95 76.777 12.0195 76.777 12.089C76.777 12.4852 76.9542 12.7598 77.3087 12.9127C77.6632 13.0656 78.0977 13.1421 78.6121 13.1421C79.2168 13.1421 80.1691 13.1386 81.469 13.1317L80.9894 17C79.2446 17 77.7571 17 76.5267 17Z" fill="white"/>
</svg>
