<svg width="143" height="23" viewBox="0 0 143 23" fill="none" xmlns="http://www.w3.org/2000/svg">
<path d="M10.3252 23.113C6.44661 23.113 3.79181 22.6658 2.36086 21.7715C0.929905 20.8771 0.214428 19.2955 0.214428 17.0267C0.214428 16.4524 0.256792 15.8264 0.341519 15.1486H7.24681C7.20916 15.4216 7.19033 15.6711 7.19033 15.897C7.19033 16.8761 7.54336 17.4409 8.24942 17.5916C8.95548 17.7422 9.84512 17.8175 10.9183 17.8175C11.9821 17.8175 12.9141 17.7798 13.7143 17.7045C14.524 17.6292 14.9806 17.1915 15.0841 16.3913C15.0935 16.3442 15.0982 16.2971 15.0982 16.25C15.0982 15.6005 14.5287 15.2145 13.3896 15.0921C12.2599 14.9603 10.7865 14.7673 8.96961 14.5131C5.82527 13.9765 3.73533 13.3175 2.69977 12.5362C1.67362 11.7454 1.16055 10.6157 1.16055 9.14705C1.16055 8.82697 1.18409 8.48806 1.23116 8.13032C1.60772 5.0613 2.72801 3.04667 4.59202 2.08642C6.46544 1.12618 9.23791 0.646056 12.9094 0.646056C16.5715 0.646056 19.1463 1.13089 20.6338 2.10055C22.1212 3.06079 22.8649 4.65178 22.8649 6.87353C22.8649 7.39131 22.8273 7.95145 22.7519 8.55396H15.8608C15.889 8.3186 15.9031 8.09737 15.9031 7.89026C15.9031 6.93001 15.5313 6.36516 14.7876 6.19571C14.0438 6.01684 13.173 5.9274 12.1751 5.9274C11.0548 5.9274 10.0899 5.97447 9.28027 6.06862C8.47065 6.16276 8.01877 6.60993 7.92463 7.41014C7.91522 7.47604 7.91051 7.53723 7.91051 7.59371C7.91051 8.29977 8.49419 8.70929 9.66155 8.82226C10.8289 8.92582 12.2834 9.10939 14.025 9.37299C17.3388 9.91901 19.4946 10.5545 20.4925 11.2794C21.4904 11.9948 21.9894 13.0586 21.9894 14.4708C21.9894 14.772 21.9706 15.0921 21.9329 15.431C21.5375 18.6318 20.4408 20.7124 18.6427 21.6726C16.8446 22.6328 14.0721 23.113 10.3252 23.113ZM24.5162 0.646056H37.5078C40.1249 0.646056 41.8665 1.25798 42.7326 2.48182C43.5987 3.69625 44.0318 5.23546 44.0318 7.09947C44.0318 7.76787 43.9847 8.49277 43.8906 9.27414C43.5234 12.2396 42.6667 14.4237 41.3205 15.8264C39.9837 17.2197 38.0067 17.9163 35.3896 17.9163H29.3174L28.6961 23H21.7767L24.5162 0.646056ZM34.4293 12.4797C35.2013 12.4797 35.7803 12.3573 36.1663 12.1125C36.5617 11.8677 36.8629 10.9216 37.07 9.27414C37.1453 8.66222 37.183 8.14915 37.183 7.73492C37.183 7.03828 37.0465 6.5911 36.7735 6.39341C36.5099 6.18629 35.9921 6.08274 35.2201 6.08274H30.7578L29.967 12.4797H34.4293ZM45.7257 0.646056H52.6027L49.8632 23H42.9862L45.7257 0.646056ZM53.3379 0.646056H66.8378C69.2479 0.646056 70.8906 1.28622 71.7662 2.56655C72.6417 3.84687 73.0794 5.31078 73.0794 6.95826C73.0794 7.42896 73.0465 7.92321 72.9806 8.44099C72.7076 10.6345 71.8791 12.4091 70.4952 13.7647C69.3844 14.8473 67.9205 15.4969 66.1035 15.7134L66.2306 16.1088L68.8431 15.6146L71.1589 23H63.6606L61.6977 17.6763L61.853 16.4054H58.3368L57.5178 23H50.5984L53.3379 0.646056ZM63.6464 11.0817C64.2772 11.0817 64.8138 10.851 65.2563 10.3897C65.6987 9.92843 65.967 9.3118 66.0612 8.53984C66.08 8.35155 66.0894 8.17268 66.0894 8.00323C66.0894 7.43838 65.9482 6.92531 65.6658 6.46401C65.3928 6.00272 64.9362 5.77207 64.296 5.77207H59.6219L58.9723 11.0817H63.6464ZM74.7129 0.646056H81.5899L78.8504 23H71.9733L74.7129 0.646056ZM93.1702 23H86.2508L88.2984 6.36516H81.6332L82.3251 0.646056H102.575L101.869 6.36516H93.2973L93.2408 6.7888H93.5797C94.0599 6.7888 94.427 6.93472 94.6812 7.22656C94.9354 7.50898 95.0295 7.89026 94.9636 8.37038L93.1702 23ZM101.224 18.114C101.45 16.2689 102.241 14.8285 103.596 13.7929C104.952 12.7574 106.962 11.8866 109.626 11.1805C112.206 10.4933 113.745 9.98491 114.244 9.65542C114.743 9.32592 115.039 8.77048 115.133 7.98911C115.162 7.76317 115.176 7.56076 115.176 7.38189C115.176 6.76056 114.987 6.36987 114.611 6.20983C114.244 6.04979 113.637 5.96977 112.789 5.96977C111.773 5.96977 110.949 6.10157 110.318 6.36516C109.687 6.62876 109.292 7.40543 109.132 8.69517H102.325C102.664 5.93682 103.775 3.90806 105.658 2.60891C107.55 1.30034 110.158 0.646056 113.481 0.646056C116.88 0.646056 119.167 1.24386 120.344 2.43945C121.521 3.62564 122.109 5.05659 122.109 6.73232C122.109 7.08064 122.086 7.43838 122.039 7.80553C121.775 9.9802 120.895 11.6371 119.398 12.7762C117.911 13.9059 116.084 14.8003 113.919 15.4593C112.093 15.9488 110.742 16.3112 109.866 16.5466C109 16.7725 108.543 17.0926 108.496 17.5068H120.81L120.132 23H100.631L101.224 18.114ZM132.14 18.7213H121.479L122.143 13.3834L131.802 0.646056H141.178L139.596 13.5529H142.28L141.644 18.7213H138.961L138.439 23H131.618L132.14 18.7213ZM132.776 13.5529L133.454 8.1162L135.205 5.43316L134.88 5.20722L128.822 13.5529H132.776Z" fill="white"/>
</svg>
