<svg width="45" height="13" viewBox="0 0 45 13" fill="none" xmlns="http://www.w3.org/2000/svg">
<path d="M10.1521 5.216L9.81613 7.056H4.16813L3.64013 10.032H9.57613L9.22413 12H0.904125L2.90413 0.575999H11.2241L10.9041 2.48H4.96813L4.50413 5.216H10.1521ZM22.9844 3.328C23.6564 3.328 24.227 3.536 24.6964 3.952C25.1657 4.368 25.4004 4.96533 25.4004 5.744C25.4004 6 25.379 6.24 25.3364 6.464L24.3764 12H22.1364L23.0164 6.96C23.059 6.61867 23.0804 6.39467 23.0804 6.288C23.0804 5.88267 22.9844 5.58933 22.7924 5.408C22.6004 5.22667 22.3177 5.136 21.9444 5.136C21.4644 5.136 21.0217 5.33333 20.6164 5.728C20.2217 6.12267 19.9604 6.68267 19.8324 7.408L19.0164 12H16.7764L17.6564 6.96C17.699 6.736 17.7204 6.512 17.7204 6.288C17.7204 5.872 17.6244 5.57867 17.4324 5.408C17.251 5.22667 16.9737 5.136 16.6004 5.136C16.1204 5.136 15.6777 5.33867 15.2724 5.744C14.867 6.13867 14.6004 6.69333 14.4724 7.408L13.6724 12H11.4324L12.9204 3.536H15.0644L14.8564 4.672H14.9204C15.2937 4.21333 15.6884 3.87733 16.1044 3.664C16.5204 3.44 17.027 3.328 17.6244 3.328C18.1257 3.328 18.5897 3.456 19.0164 3.712C19.4537 3.95733 19.747 4.29867 19.8964 4.736C20.3764 4.256 20.8404 3.904 21.2884 3.68C21.7364 3.44533 22.3017 3.328 22.9844 3.328ZM34.3643 10.4C34.5456 10.4 34.6789 10.3733 34.7643 10.32L34.4763 12.016C34.2843 12.08 33.9483 12.112 33.4683 12.112C33.0203 12.112 32.6416 12.0267 32.3323 11.856C32.0336 11.6853 31.8576 11.44 31.8043 11.12H31.7403C31.3989 11.4933 31.0149 11.7653 30.5883 11.936C30.1616 12.1067 29.6603 12.192 29.0843 12.192C28.6256 12.192 28.1936 12.096 27.7883 11.904C27.3936 11.712 27.0736 11.4453 26.8283 11.104C26.5936 10.7627 26.4763 10.368 26.4763 9.92C26.4763 8.87467 26.8069 8.13333 27.4683 7.696C28.1403 7.248 29.0896 6.98133 30.3163 6.896C31.0523 6.84267 31.6123 6.73067 31.9963 6.56C32.3803 6.37867 32.5723 6.09067 32.5723 5.696C32.5723 5.184 32.1829 4.928 31.4043 4.928C30.9989 4.928 30.6256 5.04533 30.2843 5.28C29.9536 5.504 29.6976 5.824 29.5163 6.24L27.4843 5.84C27.8043 5.02933 28.3109 4.41067 29.0043 3.984C29.7083 3.54667 30.5776 3.328 31.6123 3.328C32.6469 3.328 33.4363 3.536 33.9803 3.952C34.5349 4.368 34.8123 4.92267 34.8123 5.616C34.8123 5.76533 34.7963 5.93067 34.7643 6.112L34.0923 9.936L34.0763 10.096C34.0763 10.2027 34.1029 10.2827 34.1562 10.336C34.2203 10.3787 34.2896 10.4 34.3643 10.4ZM32.2043 7.872C32.0016 8.04267 31.4256 8.176 30.4763 8.272C29.9643 8.336 29.5483 8.496 29.2283 8.752C28.9083 8.99733 28.7483 9.328 28.7483 9.744C28.7483 10.032 28.8496 10.256 29.0523 10.416C29.2656 10.576 29.5323 10.656 29.8523 10.656C30.3536 10.656 30.8123 10.4853 31.2283 10.144C31.6549 9.80267 31.9323 9.30133 32.0603 8.64L32.2043 7.872ZM39.628 3.536L38.14 12H35.9L37.388 3.536H39.628ZM40.188 0.415999L39.836 2.336H37.596L37.932 0.415999H40.188ZM44.7673 0.415999L42.7353 12H40.4953L42.5113 0.415999H44.7673Z" fill="white"/>
</svg>
