<svg width="21" height="22" viewBox="0 0 21 22" fill="none" xmlns="http://www.w3.org/2000/svg">
<g id="home" clip-path="url(#clip0_238_826)">
<path id="Union" fill-rule="evenodd" clip-rule="evenodd" d="M2.44413 8.58754L9.79115 2.30542C9.98928 2.13925 10.2402 2.04785 10.4998 2.04785C10.7594 2.04785 11.0104 2.13927 11.2085 2.30546L11.2107 2.30731L18.5555 8.58754L18.5555 8.58755L18.5607 8.59198C18.6829 8.69498 18.7808 8.82318 18.848 8.96756C18.9151 9.11192 18.9498 9.26905 18.9498 9.42802V9.42826V18.8568C18.9498 19.1466 18.8345 19.4249 18.6284 19.6305C18.4223 19.8361 18.1423 19.9521 17.8498 19.9521H14.6498V12.5711C14.6498 12.0274 14.4333 11.5063 14.0486 11.1225C13.6639 10.7387 13.1428 10.5235 12.5998 10.5235H8.3998C7.85684 10.5235 7.33566 10.7387 6.95104 11.1225C6.56634 11.5063 6.3498 12.0274 6.3498 12.5711V19.9521H3.1498C2.85734 19.9521 2.5773 19.8361 2.37118 19.6305C2.16514 19.4249 2.0498 19.1466 2.0498 18.8568V9.42826V9.42802C2.04977 9.26905 2.08449 9.11192 2.15162 8.96756C2.21876 8.82318 2.31675 8.69498 2.4389 8.59198L2.43892 8.592L2.44413 8.58754ZM7.34143 21.9521C7.34422 21.9521 7.34701 21.9521 7.3498 21.9521C7.3526 21.9521 7.35539 21.9521 7.35818 21.9521H13.6414C13.6442 21.9521 13.647 21.9521 13.6498 21.9521C13.6526 21.9521 13.6554 21.9521 13.6582 21.9521H17.8498C18.6712 21.9521 19.4595 21.6265 20.041 21.0463C20.6226 20.466 20.9498 19.6785 20.9498 18.8568V9.4285V9.42826C20.9499 8.97774 20.8514 8.53269 20.6615 8.12418C20.472 7.71673 20.196 7.3555 19.8529 7.06543L19.85 7.06301L12.5052 0.782791L12.5052 0.782773L12.5 0.778348C11.9404 0.306475 11.2318 0.0478516 10.4998 0.0478516C9.76784 0.0478516 9.0592 0.306475 8.49961 0.778348L8.49959 0.77833L8.49438 0.782791L1.14674 7.06544C0.803594 7.35551 0.527626 7.71674 0.338141 8.12418C0.148159 8.53269 0.0497316 8.97774 0.0498047 9.42826V9.4285V18.8568C0.0498047 19.6785 0.376964 20.466 0.958577 21.0463C1.54011 21.6265 2.32836 21.9521 3.1498 21.9521H7.34143ZM12.6498 19.9521H8.3498V12.5711C8.3498 12.5593 8.35452 12.5474 8.36365 12.5383C8.37285 12.5291 8.38581 12.5235 8.3998 12.5235H12.5998C12.6138 12.5235 12.6268 12.5291 12.636 12.5383C12.6451 12.5474 12.6498 12.5593 12.6498 12.5711V19.9521Z" fill="white"/>
</g>
<defs>
<clipPath id="clip0_238_826">
<rect width="21" height="22" fill="white"/>
</clipPath>
</defs>
</svg>
