<svg width="169" height="23" viewBox="0 0 169 23" fill="none" xmlns="http://www.w3.org/2000/svg">
<path d="M2.30431 0.494472H7.40298L6.63141 6.74009H12.0846L12.8457 0.494472H17.9444L15.9112 17H10.823L11.532 11.2027H6.08922L5.36977 17H0.281522L2.30431 0.494472ZM22.9256 10.6188C22.8561 11.2097 22.8214 11.7032 22.8214 12.0994C22.8214 12.7042 22.9291 13.1247 23.1446 13.3611C23.3601 13.5974 23.805 13.7156 24.4792 13.7156C25.2438 13.7156 25.9459 13.4862 26.5854 13.0274C27.0859 12.659 27.4335 12.0682 27.6281 11.2549L28.4414 4.66517H33.4879L31.976 17H27.1485L27.2632 16.0512C27.2632 15.9956 27.2875 15.9504 27.3361 15.9156L28.4414 14.9564L28.2537 14.7791L28.0452 14.9147C27.9756 14.9842 27.9061 15.0537 27.8366 15.1232C26.4672 16.4439 24.6113 17.1043 22.2687 17.1043C20.4058 17.1043 19.1859 16.6316 18.609 15.6862C18.039 14.7409 17.754 13.6391 17.754 12.381C17.754 11.9291 17.7852 11.446 17.8478 10.9316L18.6194 4.67559H23.6555L22.9256 10.6188ZM42.8242 10.6501C42.8799 10.1913 42.9077 9.7986 42.9077 9.47189C42.9077 8.93665 42.8103 8.55087 42.6157 8.31453C42.4211 8.07819 42.0422 7.96002 41.4792 7.96002C40.8605 7.96002 40.3184 8.15465 39.8526 8.54391C39.512 8.82196 39.2583 9.30159 39.0915 9.9828L38.2261 17H33.1795L34.6914 4.66517H39.7484L39.6441 5.49931C39.6302 5.56187 39.6059 5.60705 39.5711 5.63485L38.4554 6.63582L38.6431 6.81308L39.0289 6.48985C39.1123 6.40643 39.1957 6.32649 39.2792 6.25003C40.4678 5.15175 41.8511 4.60261 43.429 4.60261C43.5055 4.60261 43.5819 4.60261 43.6584 4.60261C45.4448 4.66517 46.6474 5.21778 47.266 6.26046C47.3355 6.37168 47.3981 6.4829 47.4537 6.59411C47.5163 6.54546 47.5788 6.4968 47.6414 6.44814C49.1498 5.21778 50.7069 4.60261 52.3126 4.60261C52.3821 4.60261 52.4516 4.60261 52.5211 4.60261C54.3076 4.66517 55.4615 5.15522 55.9828 6.07278C56.5111 6.99033 56.7752 7.99477 56.7752 9.0861C56.7752 9.42671 56.7544 9.7847 56.7127 10.1601L55.8681 17H50.832L51.614 10.6501C51.6696 10.1635 51.6974 9.74994 51.6974 9.40933C51.6974 8.90885 51.6105 8.54391 51.4367 8.31453C51.2699 8.07819 50.905 7.96002 50.3419 7.96002C49.7163 7.96002 49.1707 8.15465 48.7049 8.54391C48.3504 8.84281 48.0897 9.36415 47.9229 10.1079C47.9229 10.1288 47.9194 10.1462 47.9125 10.1601L47.0784 17H42.0422L42.8242 10.6501ZM65.0485 17.1043C62.7199 17.1043 60.923 16.6385 59.6579 15.7071C58.3997 14.7687 57.7706 13.4619 57.7706 11.7866C57.7706 11.4599 57.7915 11.1158 57.8332 10.7544C58.0974 8.57172 59.0392 6.99033 60.6589 6.01022C62.2854 5.02315 64.263 4.52962 66.5917 4.52962C68.9203 4.52962 70.7172 4.98144 71.9823 5.8851C73.2474 6.78875 73.88 8.07124 73.88 9.73256C73.88 10.0523 73.8591 10.3929 73.8174 10.7544C73.5463 12.9509 72.5975 14.5601 70.9709 15.582C69.3513 16.5968 67.3772 17.1043 65.0485 17.1043ZM65.4656 13.7886C66.3136 13.7886 67.0331 13.6495 67.6239 13.3715C68.2217 13.0865 68.6075 12.2246 68.7813 10.7857C68.8299 10.4242 68.8543 10.101 68.8543 9.81598C68.8543 8.97489 68.6214 8.43617 68.1557 8.19983C67.6969 7.96349 67.0435 7.84532 66.1955 7.84532C65.3405 7.84532 64.6141 7.98087 64.0163 8.25197C63.4185 8.52306 63.0327 9.36763 62.8589 10.7857C62.8172 11.1402 62.7963 11.4599 62.7963 11.7449C62.7963 12.6138 63.0257 13.1734 63.4845 13.4236C63.9502 13.6669 64.6106 13.7886 65.4656 13.7886ZM84.6913 10.7231C84.7539 10.2087 84.7852 9.77427 84.7852 9.41976C84.7852 8.83586 84.674 8.4466 84.4515 8.25197C84.236 8.05038 83.7182 7.94959 82.898 7.94959C82.1611 7.94959 81.532 8.1338 81.0107 8.50221C80.6145 8.7872 80.3364 9.21123 80.1766 9.77427L79.2903 17H74.2438L75.7556 4.66517H80.8126L80.7083 5.50973C80.6944 5.56534 80.6666 5.61052 80.6249 5.64528L79.5197 6.60454L79.7178 6.7818L79.8116 6.69838C80.048 6.45509 80.3191 6.21528 80.6249 5.97894C81.8344 5.04053 83.3637 4.57133 85.2127 4.57133C87.1034 4.57133 88.3511 4.95017 88.9559 5.70784C89.5606 6.45857 89.863 7.51862 89.863 8.888C89.863 9.43714 89.8213 10.0488 89.7379 10.7231H84.6913ZM103.107 17H98.0183L100.041 0.494472H108.977L111.573 12.8606H111.886L111.584 9.72214C111.57 9.63177 111.559 9.53098 111.552 9.41976C111.545 9.30854 111.549 9.20427 111.563 9.10696L112.616 0.494472H117.714L115.681 17H107.142L104.295 3.89359H103.972L104.233 7.06332C104.247 7.13978 104.257 7.23015 104.264 7.33441C104.271 7.43868 104.267 7.536 104.254 7.62636L103.107 17ZM123.961 0.494472L123.543 3.9353H118.487L118.893 0.494472H123.961ZM118.403 4.67559H123.46L121.948 17H116.881L118.403 4.67559ZM131.155 13.9345C130.202 13.9345 129.299 13.8511 128.444 13.6843C128.374 13.7608 128.339 13.8337 128.339 13.9033C128.339 14.1118 128.701 14.2508 129.424 14.3203C130.432 14.4107 131.561 14.4559 132.813 14.4559C135.072 14.4559 136.472 14.7061 137.015 15.2066C137.557 15.7071 137.828 16.3813 137.828 17.2294C137.828 17.4449 137.814 17.6743 137.786 17.9176C137.585 19.6067 136.879 20.7362 135.669 21.3062C134.467 21.8832 132.128 22.1717 128.652 22.1717C125.559 22.1717 123.821 21.8589 123.439 21.2333C123.057 20.6146 122.865 20.1176 122.865 19.7422C122.865 19.1722 123.126 18.5744 123.647 17.9488H127.464C127.38 18.0879 127.338 18.1991 127.338 18.2825C127.338 18.3798 127.418 18.4493 127.578 18.491C127.745 18.5327 128.266 18.5536 129.142 18.5536C130.275 18.5536 131.169 18.5466 131.822 18.5327C132.475 18.5258 132.819 18.3763 132.854 18.0844C132.854 18.0774 132.854 18.067 132.854 18.0531C132.854 17.8654 132.573 17.7577 132.01 17.7299C131.447 17.7021 129.803 17.6882 127.078 17.6882C125.215 17.6882 124.141 17.1216 123.856 15.9886C123.814 15.8079 123.793 15.6271 123.793 15.4464C123.793 14.5428 124.329 13.58 125.399 12.5582C124.676 12.0299 124.315 11.307 124.315 10.3894C124.315 10.2365 124.325 10.0801 124.346 9.92024C124.61 7.76538 125.489 6.34387 126.984 5.65571C128.478 4.96059 130.126 4.61303 131.926 4.61303H139.778L139.34 8.1477H135.211L135.179 8.4605H135.993C137.001 8.4605 137.505 9.10696 137.505 10.3999C137.505 10.6432 137.487 10.9073 137.452 11.1923C137.223 13.0205 135.124 13.9345 131.155 13.9345ZM131.582 8.1477C130.977 8.1477 130.48 8.18941 130.091 8.27282C129.702 8.34928 129.466 8.71769 129.382 9.37805C129.368 9.48927 129.361 9.59006 129.361 9.68043C129.361 10.1253 129.528 10.3929 129.862 10.4833C130.195 10.5667 130.734 10.6084 131.478 10.6084C132.66 10.6084 133.271 10.2296 133.313 9.47189C133.313 9.43714 133.313 9.40586 133.313 9.37805C133.313 8.82196 133.073 8.41184 132.594 8.1477H131.582ZM149.984 11.0568C150.053 10.5007 150.088 10.028 150.088 9.63872C150.088 9.00617 149.967 8.56824 149.723 8.32495C149.487 8.08166 149.032 7.96002 148.357 7.96002C147.6 7.96002 146.908 8.21373 146.282 8.72117C145.886 9.04787 145.594 9.44409 145.407 9.90982L144.531 17H139.484L141.507 0.494472H146.564L145.938 5.54101C145.938 5.59662 145.914 5.64181 145.865 5.67656L144.76 6.63582L144.948 6.81308C145.156 6.60454 145.386 6.39253 145.636 6.17704C146.901 5.09266 148.42 4.55047 150.192 4.55047C150.422 4.55047 150.658 4.5609 150.901 4.58175C152.528 4.71383 153.644 5.22474 154.248 6.11448C154.853 7.00423 155.156 8.08514 155.156 9.3572C155.156 9.79512 155.124 10.2609 155.062 10.7544L154.29 17H149.254L149.984 11.0568ZM162.961 17C160.751 17 159.371 16.6976 158.822 16.0929C158.273 15.4881 157.998 14.7165 157.998 13.7781C157.998 13.5279 158.015 13.2603 158.05 12.9753L158.634 8.21026H156.57L156.997 4.67559H157.55C157.883 4.67559 158.186 4.61651 158.457 4.49834C158.728 4.38017 158.964 4.21682 159.166 4.00828C159.374 3.7928 159.541 3.5356 159.666 3.2367C159.798 2.93085 159.885 2.5972 159.927 2.23574L160.135 0.494472H165.203L164.994 2.23574C164.953 2.59025 164.88 2.90305 164.775 3.17414C164.671 3.43829 164.529 3.66072 164.348 3.84145C164.167 4.01523 163.945 4.14731 163.681 4.23767C163.416 4.32109 163.097 4.36279 162.721 4.36279L162.68 4.67559H168.904L168.466 8.21026H163.681L163.222 11.8805C163.215 11.95 163.211 12.0195 163.211 12.089C163.211 12.4852 163.389 12.7598 163.743 12.9127C164.098 13.0656 164.532 13.1421 165.046 13.1421C165.651 13.1421 166.604 13.1386 167.903 13.1317L167.424 17C165.679 17 164.191 17 162.961 17Z" fill="white"/>
</svg>
