<svg width="21" height="20" viewBox="0 0 21 20" fill="none" xmlns="http://www.w3.org/2000/svg">
<path d="M1.5 10C1.5 11.1819 1.73279 12.3522 2.18508 13.4442C2.63738 14.5361 3.30031 15.5282 4.13604 16.364C4.97177 17.1997 5.96392 17.8626 7.05585 18.3149C8.14778 18.7672 9.3181 19 10.5 19C11.6819 19 12.8522 18.7672 13.9442 18.3149C15.0361 17.8626 16.0282 17.1997 16.864 16.364C17.6997 15.5282 18.3626 14.5361 18.8149 13.4442C19.2672 12.3522 19.5 11.1819 19.5 10C19.5 7.61305 18.5518 5.32387 16.864 3.63604C15.1761 1.94821 12.8869 1 10.5 1C8.11305 1 5.82387 1.94821 4.13604 3.63604C2.44821 5.32387 1.5 7.61305 1.5 10Z" stroke="white" stroke-width="2" stroke-linecap="round" stroke-linejoin="round"/>
<path d="M10.5 7H10.51" stroke="white" stroke-width="2" stroke-linecap="round" stroke-linejoin="round"/>
<path d="M9.5 10H10.5V14H11.5" stroke="white" stroke-width="2" stroke-linecap="round" stroke-linejoin="round"/>
</svg>
