<svg width="24" height="24" viewBox="0 0 24 24" fill="none" xmlns="http://www.w3.org/2000/svg">
<path d="M19.6465 10C19.6465 14.993 14.2055 20.193 12.3785 21.799C12.2082 21.9293 12.0011 21.9998 11.7881 21.9998C11.5751 21.9998 11.3679 21.9293 11.1977 21.799C9.37065 20.193 3.92969 14.993 3.92969 10C3.92969 7.87827 4.75762 5.84344 6.23136 4.34315C7.7051 2.84285 9.70392 2 11.7881 2C13.8723 2 15.8711 2.84285 17.3448 4.34315C18.8186 5.84344 19.6465 7.87827 19.6465 10Z" stroke="#FFFF30" stroke-width="2" stroke-linecap="square" stroke-linejoin="round"/>
<path d="M11.7877 13C13.4153 13 14.7346 11.6569 14.7346 10C14.7346 8.34315 13.4153 7 11.7877 7C10.1602 7 8.84082 8.34315 8.84082 10C8.84082 11.6569 10.1602 13 11.7877 13Z" stroke="#FFFF30" stroke-width="2" stroke-linecap="square" stroke-linejoin="round"/>
</svg>
