<svg width="177" height="18" viewBox="0 0 177 18" fill="none" xmlns="http://www.w3.org/2000/svg">
    <path d="M5.32806 17H0.281522L2.30431 0.494472H10.4893L11.2505 7.50124C11.2852 7.70978 11.3026 7.94264 11.3026 8.19983C11.3026 8.45007 11.2887 8.68294 11.2609 8.89842L10.9064 11.7449H11.2192L11.5737 8.89842C11.6015 8.68294 11.6467 8.4466 11.7092 8.18941C11.7718 7.93221 11.8413 7.70282 11.9178 7.50124L14.3472 0.494472H22.4279L20.4051 17H15.3586L16.1093 10.8482C16.1371 10.6327 16.1823 10.3964 16.2449 10.1392C16.3074 9.88201 16.3804 9.65262 16.4638 9.45104L17.7463 4.5609H17.4335L13.3149 17H7.3717L6.30818 4.5609H5.99538L6.07879 9.43019C6.11354 9.63177 6.12745 9.86116 6.1205 10.1184C6.1205 10.3755 6.10659 10.6084 6.07879 10.8169L5.32806 17ZM38.4489 12.7563C38.1361 13.9797 37.6113 14.9007 36.8745 15.5194C36.1377 16.1381 35.2757 16.5656 34.2887 16.8019C33.3016 17.0313 31.8801 17.146 30.0241 17.146C26.8405 17.146 24.7621 16.6316 23.7889 15.6028C23.0174 14.7895 22.6316 13.6356 22.6316 12.1411C22.6316 11.7449 22.6594 11.3244 22.715 10.8795C22.9722 8.76635 23.7055 7.18496 24.915 6.13534C26.1245 5.07876 28.3002 4.55047 31.4422 4.55047C34.598 4.55047 36.593 5.04053 37.4271 6.02064C38.2682 6.99381 38.6887 8.20331 38.6887 9.64915C38.6887 10.0384 38.6609 10.4485 38.6053 10.8795L38.4176 12.089L27.4487 12.0994C27.4557 12.8919 27.619 13.3889 27.9388 13.5905C28.3906 13.8824 29.2143 14.0284 30.4099 14.0284C31.0772 14.0284 31.5499 14.0145 31.8279 13.9867C32.1129 13.9519 32.4014 13.8129 32.6934 13.5696C32.9853 13.3263 33.2321 13.0552 33.4337 12.7563H38.4489ZM33.7777 9.46147C33.7847 9.36415 33.7882 9.27031 33.7882 9.17995C33.7882 8.5891 33.597 8.18593 33.2147 7.97044C32.8393 7.75496 32.1268 7.64722 31.0772 7.64722C29.9164 7.64722 29.0857 7.80362 28.5852 8.11642C28.2585 8.318 27.9979 8.76635 27.8032 9.46147H33.7777ZM49.4718 10.7231C49.5343 10.2087 49.5656 9.77427 49.5656 9.41976C49.5656 8.83586 49.4544 8.4466 49.232 8.25197C49.0165 8.05038 48.4986 7.94959 47.6784 7.94959C46.9416 7.94959 46.3125 8.1338 45.7911 8.50221C45.3949 8.7872 45.1169 9.21123 44.957 9.77427L44.0707 17H39.0242L40.5361 4.66517H45.593L45.4888 5.50973C45.4749 5.56534 45.4471 5.61052 45.4054 5.64528L44.3001 6.60454L44.4982 6.7818L44.5921 6.69838C44.8284 6.45509 45.0995 6.21528 45.4054 5.97894C46.6149 5.04053 48.1441 4.57133 49.9931 4.57133C51.8838 4.57133 53.1316 4.95017 53.7363 5.70784C54.3411 6.45857 54.6434 7.51862 54.6434 8.888C54.6434 9.43714 54.6017 10.0488 54.5183 10.7231H49.4718ZM62.6316 17.146C59.9068 17.146 58.03 16.7602 57.0012 15.9886C55.9724 15.2101 55.458 13.9797 55.458 12.2975C55.458 11.8596 55.4893 11.3869 55.5519 10.8795C55.8508 8.4327 56.6814 6.77137 58.0439 5.89552C59.4063 5.01273 61.4499 4.57133 64.1748 4.57133C66.9344 4.57133 68.7626 4.98145 69.6593 5.80168C70.556 6.61497 71.0043 7.96002 71.0043 9.83683C71.0043 9.94805 71.0043 10.0627 71.0043 10.1809H66.1976C66.1976 10.0905 66.1976 10.0002 66.1976 9.90982C66.1976 9.02702 66.0273 8.48135 65.6867 8.27282C65.353 8.06428 64.71 7.96002 63.7577 7.96002C62.9027 7.96002 62.1868 8.09556 61.6098 8.36666C61.0398 8.63776 60.6679 9.47537 60.4941 10.8795C60.4524 11.234 60.4316 11.5503 60.4316 11.8283C60.4316 12.6555 60.654 13.1873 61.0989 13.4236C61.5438 13.66 62.1937 13.7781 63.0487 13.7781C64.001 13.7781 64.6787 13.6669 65.0819 13.4445C65.492 13.222 65.8083 12.5999 66.0307 11.5781H70.827C70.3822 13.6495 69.5932 15.0954 68.4602 15.9156C67.3341 16.7359 65.3912 17.146 62.6316 17.146ZM81.8721 11.0568C81.9416 10.5007 81.9763 10.028 81.9763 9.63872C81.9763 9.00617 81.8547 8.56824 81.6114 8.32495C81.375 8.08166 80.9197 7.96002 80.2455 7.96002C79.4878 7.96002 78.7962 8.21373 78.1706 8.72117C77.7743 9.04787 77.4824 9.44409 77.2947 9.90982L76.4189 17H71.3723L73.3951 0.494472H78.4521L77.8265 5.54101C77.8265 5.59662 77.8021 5.64181 77.7535 5.67656L76.6483 6.63582L76.8359 6.81308C77.0445 6.60454 77.2739 6.39253 77.5241 6.17704C78.7892 5.09266 80.308 4.55047 82.0806 4.55047C82.31 4.55047 82.5463 4.5609 82.7896 4.58175C84.4162 4.71383 85.5318 5.22474 86.1366 6.11448C86.7413 7.00423 87.0437 8.08514 87.0437 9.3572C87.0437 9.79512 87.0124 10.2609 86.9499 10.7544L86.1783 17H81.1422L81.8721 11.0568ZM99.1868 14.8625L98.947 14.727C98.3283 15.4082 97.8557 15.8704 97.5289 16.1137C97.2022 16.3501 96.8234 16.5447 96.3924 16.6976C95.9684 16.8506 95.4957 16.9687 94.9744 17.0521C94.46 17.1355 93.9143 17.1773 93.3374 17.1773C92.8439 17.1773 92.3156 17.1425 91.7525 17.073C91.1964 17.0035 90.6682 16.8853 90.1677 16.7185C89.6672 16.5517 89.2258 16.3188 88.8435 16.0199C88.4612 15.714 88.1901 15.3769 88.0302 15.0085C87.8703 14.6331 87.7904 14.2369 87.7904 13.8198C87.7904 13.6391 87.8043 13.4445 87.8321 13.2359C87.9155 12.5756 88.1032 12.0473 88.3951 11.6511C88.6871 11.2549 89.052 10.9038 89.4899 10.598C89.9279 10.2921 90.4457 10.0558 91.0435 9.88896C91.6413 9.71518 92.2565 9.59006 92.889 9.5136C93.5286 9.43714 94.1368 9.39891 94.7137 9.39891H98.7593L98.7906 9.19037C98.7975 9.10696 98.801 9.0305 98.801 8.96098C98.801 8.63428 98.7072 8.36318 98.5195 8.1477C98.3318 7.92526 98.0155 7.79319 97.5707 7.75148C97.1258 7.70978 96.6322 7.68892 96.0901 7.68892C95.5965 7.68892 95.1517 7.69935 94.7554 7.7202C94.3662 7.7341 94.0012 7.84532 93.6606 8.05386C93.327 8.25544 93.115 8.59605 93.0246 9.07568H88.3743C88.5898 7.90788 89.0416 7.01814 89.7297 6.40643C90.4179 5.79473 91.1617 5.37419 91.9611 5.1448C92.7605 4.90846 93.5112 4.75206 94.2132 4.67559C94.9223 4.59218 95.7495 4.55047 96.6948 4.55047C98.6481 4.55047 100.07 4.7173 100.959 5.05096C101.856 5.37766 102.562 5.86772 103.076 6.52113C103.59 7.16758 103.848 7.93916 103.848 8.83586C103.848 9.0722 103.83 9.32244 103.795 9.58659L102.888 17H97.9773L98.0294 16.5621C98.0503 16.4022 98.1024 16.2354 98.1858 16.0616C98.2692 15.8878 98.37 15.7384 98.4882 15.6132L99.1868 14.8625ZM94.7867 14.1014C95.0856 14.1014 95.4158 14.077 95.7773 14.0284C96.1387 13.9797 96.5071 13.9067 96.8825 13.8094C97.2648 13.7052 97.5811 13.5731 97.8313 13.4132C98.0816 13.2533 98.2484 13.0622 98.3318 12.8397L98.5612 12.1203H94.9014C94.6303 12.1203 94.3801 12.1307 94.1507 12.1516C93.9213 12.1724 93.7197 12.2176 93.5459 12.2871C93.3791 12.3566 93.2436 12.4574 93.1393 12.5895C93.035 12.7216 92.969 12.8988 92.9412 13.1213C92.9342 13.1699 92.9308 13.2186 92.9308 13.2672C92.9308 13.4271 92.9759 13.5696 93.0663 13.6947C93.1567 13.8129 93.2922 13.9033 93.4729 13.9658C93.6606 14.0284 93.8692 14.0666 94.0986 14.0805C94.3349 14.0944 94.5643 14.1014 94.7867 14.1014ZM114.462 11.0568C114.525 10.5076 114.556 10.0419 114.556 9.65958C114.556 9.01312 114.438 8.56824 114.201 8.32495C113.965 8.08166 113.51 7.96002 112.836 7.96002C112.071 7.96002 111.379 8.21373 110.761 8.72117C110.455 8.97141 110.205 9.30507 110.01 9.72214L109.113 17H104.067L105.579 4.66517H110.636L110.531 5.49931C110.517 5.56187 110.493 5.60705 110.458 5.63485L109.343 6.63582L109.53 6.81308L109.676 6.69838C109.732 6.63582 109.791 6.57674 109.854 6.52113C111.244 5.22126 112.884 4.57133 114.775 4.57133C114.942 4.57133 115.112 4.5748 115.286 4.58175C116.975 4.69992 118.118 5.22126 118.716 6.14576C119.314 7.07027 119.613 8.17203 119.613 9.45104C119.613 9.88896 119.582 10.3582 119.519 10.8587L118.768 17H113.732L114.462 11.0568ZM132.489 0.494472H137.535L135.513 17H130.456L130.539 16.364C130.539 16.3084 130.567 16.2597 130.622 16.218L131.801 15.436L131.613 15.2587L131.571 15.2796C131.265 15.5229 130.894 15.7662 130.456 16.0095C129.163 16.7254 127.672 17.0834 125.983 17.0834C125.892 17.0834 125.798 17.0834 125.701 17.0834C123.866 17.0348 122.563 16.5169 121.791 15.5298C121.019 14.5428 120.634 13.3611 120.634 11.9847C120.634 11.6094 120.658 11.2166 120.707 10.8065C120.943 8.88105 121.628 7.3796 122.761 6.30217C123.901 5.22474 125.395 4.65126 127.244 4.58175C127.355 4.58175 127.463 4.58175 127.567 4.58175C129.229 4.58175 130.615 4.93974 131.728 5.65571C132.061 5.87119 132.343 6.09016 132.572 6.31259L132.708 6.40643L132.958 6.2396L131.947 5.42632C131.912 5.39851 131.894 5.35333 131.894 5.29077L132.489 0.494472ZM128.005 13.726C128.749 13.726 129.43 13.5766 130.049 13.2777C130.626 12.9996 130.984 12.4227 131.123 11.5468L131.3 10.1496C131.307 10.0315 131.311 9.92024 131.311 9.81598C131.311 9.10696 131.088 8.63428 130.643 8.39794C130.101 8.10599 129.458 7.96002 128.714 7.96002C127.88 7.96002 127.227 8.10252 126.754 8.38751C126.288 8.67251 125.972 9.4858 125.805 10.8274C125.757 11.2166 125.732 11.5607 125.732 11.8596C125.732 12.6103 125.903 13.1108 126.243 13.3611C126.584 13.6044 127.171 13.726 128.005 13.726ZM143.77 0.494472L143.353 3.9353H138.296L138.702 0.494472H143.77ZM138.212 4.67559H143.269L141.757 17H136.69L138.212 4.67559ZM150.755 17.1043C147.85 17.1043 145.91 16.8401 144.937 16.3118C143.971 15.7835 143.488 14.866 143.488 13.5592C143.488 13.2881 143.505 13.0031 143.54 12.7042H148.315C148.302 12.8015 148.295 12.8953 148.295 12.9857C148.295 13.5418 148.566 13.8442 149.108 13.8928C149.65 13.9345 150.411 13.9554 151.391 13.9554C152.059 13.9554 152.615 13.9484 153.06 13.9345C153.505 13.9137 153.758 13.6634 153.821 13.1838C153.821 13.156 153.821 13.1317 153.821 13.1108C153.821 12.7563 153.491 12.5652 152.83 12.5374C152.17 12.5026 151.214 12.4574 149.963 12.4018C148.218 12.3392 146.783 12.0577 145.657 11.5572C144.538 11.0498 143.978 10.1948 143.978 8.99226C143.978 8.80458 143.992 8.60648 144.02 8.39794C144.18 7.04942 144.885 6.07625 146.136 5.47845C147.387 4.8737 149.24 4.57133 151.694 4.57133C154.731 4.57133 156.733 4.85285 157.7 5.41589C158.673 5.97199 159.159 6.88606 159.159 8.15813C159.159 8.41532 159.142 8.68294 159.107 8.96098H154.363C154.377 8.86367 154.384 8.7733 154.384 8.68989C154.384 8.11989 154.099 7.81404 153.529 7.77234C152.966 7.72368 152.166 7.69935 151.131 7.69935C150.38 7.69935 149.82 7.7202 149.452 7.76191C149.091 7.79666 148.882 8.05038 148.826 8.52306C148.819 8.55087 148.816 8.57519 148.816 8.59605C148.816 8.95056 149.209 9.14519 149.994 9.17995C150.78 9.20775 151.791 9.25293 153.028 9.31549C154.724 9.39891 156.087 9.6561 157.116 10.0871C158.144 10.518 158.659 11.2757 158.659 12.3601C158.659 12.5339 158.648 12.7146 158.628 12.9023C158.44 14.4733 157.79 15.5681 156.678 16.1867C155.572 16.7984 153.598 17.1043 150.755 17.1043ZM175.798 12.7563C175.486 13.9797 174.961 14.9007 174.224 15.5194C173.487 16.1381 172.625 16.5656 171.638 16.8019C170.651 17.0313 169.23 17.146 167.374 17.146C164.19 17.146 162.112 16.6316 161.138 15.6028C160.367 14.7895 159.981 13.6356 159.981 12.1411C159.981 11.7449 160.009 11.3244 160.064 10.8795C160.322 8.76635 161.055 7.18496 162.265 6.13534C163.474 5.07876 165.65 4.55047 168.792 4.55047C171.947 4.55047 173.942 5.04053 174.777 6.02064C175.618 6.99381 176.038 8.20331 176.038 9.64915C176.038 10.0384 176.01 10.4485 175.955 10.8795L175.767 12.089L164.798 12.0994C164.805 12.8919 164.969 13.3889 165.288 13.5905C165.74 13.8824 166.564 14.0284 167.759 14.0284C168.427 14.0284 168.899 14.0145 169.177 13.9867C169.462 13.9519 169.751 13.8129 170.043 13.5696C170.335 13.3263 170.582 13.0552 170.783 12.7563H175.798ZM171.127 9.46147C171.134 9.36415 171.138 9.27031 171.138 9.17995C171.138 8.5891 170.946 8.18593 170.564 7.97044C170.189 7.75496 169.476 7.64722 168.427 7.64722C167.266 7.64722 166.435 7.80362 165.935 8.11642C165.608 8.318 165.347 8.76635 165.153 9.46147H171.127Z" fill="white"/>
</svg>
