<svg width="47" height="13" viewBox="0 0 47 13" fill="none" xmlns="http://www.w3.org/2000/svg">
<path d="M8.04763 12L4.28763 3.808H4.22363L2.78363 12H0.591625L2.59163 0.575999H5.13563L8.83162 8.624H8.89563L10.3036 0.575999H12.5116L10.5116 12H8.04763ZM20.7705 10.4C20.9518 10.4 21.0852 10.3733 21.1705 10.32L20.8825 12.016C20.6905 12.08 20.3545 12.112 19.8745 12.112C19.4265 12.112 19.0478 12.0267 18.7385 11.856C18.4398 11.6853 18.2638 11.44 18.2105 11.12H18.1465C17.8052 11.4933 17.4212 11.7653 16.9945 11.936C16.5678 12.1067 16.0665 12.192 15.4905 12.192C15.0318 12.192 14.5998 12.096 14.1945 11.904C13.7998 11.712 13.4798 11.4453 13.2345 11.104C12.9998 10.7627 12.8825 10.368 12.8825 9.92C12.8825 8.87467 13.2132 8.13333 13.8745 7.696C14.5465 7.248 15.4958 6.98133 16.7225 6.896C17.4585 6.84267 18.0185 6.73067 18.4025 6.56C18.7865 6.37867 18.9785 6.09067 18.9785 5.696C18.9785 5.184 18.5892 4.928 17.8105 4.928C17.4052 4.928 17.0318 5.04533 16.6905 5.28C16.3598 5.504 16.1038 5.824 15.9225 6.24L13.8905 5.84C14.2105 5.02933 14.7172 4.41067 15.4105 3.984C16.1145 3.54667 16.9838 3.328 18.0185 3.328C19.0532 3.328 19.8425 3.536 20.3865 3.952C20.9412 4.368 21.2185 4.92267 21.2185 5.616C21.2185 5.76533 21.2025 5.93067 21.1705 6.112L20.4985 9.936L20.4825 10.096C20.4825 10.2027 20.5092 10.2827 20.5625 10.336C20.6265 10.3787 20.6958 10.4 20.7705 10.4ZM18.6105 7.872C18.4078 8.04267 17.8318 8.176 16.8825 8.272C16.3705 8.336 15.9545 8.496 15.6345 8.752C15.3145 8.99733 15.1545 9.328 15.1545 9.744C15.1545 10.032 15.2558 10.256 15.4585 10.416C15.6718 10.576 15.9385 10.656 16.2585 10.656C16.7598 10.656 17.2185 10.4853 17.6345 10.144C18.0612 9.80267 18.3385 9.30133 18.4665 8.64L18.6105 7.872ZM33.9063 3.328C34.5783 3.328 35.1489 3.536 35.6183 3.952C36.0876 4.368 36.3223 4.96533 36.3223 5.744C36.3223 6 36.3009 6.24 36.2583 6.464L35.2983 12H33.0583L33.9383 6.96C33.9809 6.61867 34.0023 6.39467 34.0023 6.288C34.0023 5.88267 33.9063 5.58933 33.7143 5.408C33.5223 5.22667 33.2396 5.136 32.8663 5.136C32.3863 5.136 31.9436 5.33333 31.5383 5.728C31.1436 6.12267 30.8823 6.68267 30.7543 7.408L29.9383 12H27.6983L28.5783 6.96C28.6209 6.736 28.6423 6.512 28.6423 6.288C28.6423 5.872 28.5463 5.57867 28.3543 5.408C28.1729 5.22667 27.8956 5.136 27.5223 5.136C27.0423 5.136 26.5996 5.33867 26.1943 5.744C25.7889 6.13867 25.5223 6.69333 25.3943 7.408L24.5943 12H22.3543L23.8423 3.536H25.9863L25.7783 4.672H25.8423C26.2156 4.21333 26.6103 3.87733 27.0263 3.664C27.4423 3.44 27.9489 3.328 28.5463 3.328C29.0476 3.328 29.5116 3.456 29.9383 3.712C30.3756 3.95733 30.6689 4.29867 30.8183 4.736C31.2983 4.256 31.7623 3.904 32.2103 3.68C32.6583 3.44533 33.2236 3.328 33.9063 3.328ZM45.8941 9.536C45.5528 10.272 45.0195 10.9013 44.2941 11.424C43.5688 11.936 42.5821 12.192 41.3341 12.192C40.2355 12.192 39.3555 11.8827 38.6941 11.264C38.0328 10.6453 37.7021 9.808 37.7021 8.752C37.7021 7.73867 37.9048 6.82133 38.3101 6C38.7261 5.168 39.3128 4.51733 40.0701 4.048C40.8275 3.568 41.7181 3.328 42.7421 3.328C43.8408 3.328 44.7208 3.632 45.3821 4.24C46.0435 4.848 46.3741 5.696 46.3741 6.784C46.3741 7.22133 46.3101 7.70667 46.1821 8.24H39.9901C39.9581 8.464 39.9421 8.66667 39.9421 8.848C39.9421 9.392 40.0755 9.824 40.3421 10.144C40.6088 10.4533 40.9821 10.608 41.4621 10.608C42.0275 10.608 42.4808 10.4747 42.8221 10.208C43.1741 9.94133 43.4408 9.62667 43.6221 9.264L45.8941 9.536ZM42.6301 4.896C42.0648 4.896 41.5741 5.07733 41.1581 5.44C40.7421 5.80267 40.4595 6.256 40.3101 6.8H44.1501C44.1715 6.65067 44.1821 6.53333 44.1821 6.448C44.1821 6 44.0488 5.632 43.7821 5.344C43.5261 5.04533 43.1421 4.896 42.6301 4.896Z" fill="white"/>
</svg>
