<svg width="92" height="18" viewBox="0 0 92 18" fill="none" xmlns="http://www.w3.org/2000/svg">
<path d="M2.30431 0.494472H11.8969C13.8293 0.494472 15.1153 0.946297 15.7548 1.84995C16.3943 2.74665 16.7141 3.88316 16.7141 5.25949C16.7141 5.75302 16.6793 6.28826 16.6098 6.86521C16.3387 9.05482 15.7061 10.6675 14.7121 11.7032C13.7251 12.732 12.2653 13.2464 10.3329 13.2464H5.8494L5.39062 17H0.281522L2.30431 0.494472ZM9.62388 9.23208C10.1939 9.23208 10.6214 9.14171 10.9064 8.96098C11.1983 8.78025 11.4208 8.08166 11.5737 6.86521C11.6293 6.41338 11.6571 6.03455 11.6571 5.72869C11.6571 5.21431 11.5563 4.88413 11.3547 4.73816C11.1601 4.58523 10.7778 4.50877 10.2078 4.50877H6.91293L6.32903 9.23208H9.62388ZM27.0152 10.7231C27.0778 10.2087 27.109 9.77427 27.109 9.41976C27.109 8.83586 26.9978 8.4466 26.7754 8.25197C26.5599 8.05038 26.042 7.94959 25.2218 7.94959C24.485 7.94959 23.8559 8.1338 23.3346 8.50221C22.9383 8.7872 22.6603 9.21123 22.5004 9.77427L21.6141 17H16.5676L18.0795 4.66517H23.1364L23.0322 5.50973C23.0183 5.56534 22.9905 5.61052 22.9488 5.64528L21.8435 6.60454L22.0416 6.7818L22.1355 6.69838C22.3718 6.45509 22.6429 6.21528 22.9488 5.97894C24.1583 5.04053 25.6875 4.57133 27.5365 4.57133C29.4272 4.57133 30.675 4.95017 31.2797 5.70784C31.8845 6.45857 32.1869 7.51862 32.1869 8.888C32.1869 9.43714 32.1451 10.0488 32.0617 10.7231H27.0152ZM40.3314 17.1043C38.0028 17.1043 36.2059 16.6385 34.9408 15.7071C33.6827 14.7687 33.0536 13.4619 33.0536 11.7866C33.0536 11.4599 33.0744 11.1158 33.1161 10.7544C33.3803 8.57172 34.3222 6.99033 35.9418 6.01022C37.5684 5.02315 39.546 4.52962 41.8746 4.52962C44.2032 4.52962 46.0001 4.98144 47.2652 5.8851C48.5303 6.78875 49.1629 8.07124 49.1629 9.73256C49.1629 10.0523 49.142 10.3929 49.1003 10.7544C48.8292 12.9509 47.8804 14.5601 46.2538 15.582C44.6342 16.5968 42.6601 17.1043 40.3314 17.1043ZM40.7485 13.7886C41.5966 13.7886 42.316 13.6495 42.9068 13.3715C43.5046 13.0865 43.8904 12.2246 44.0642 10.7857C44.1129 10.4242 44.1372 10.101 44.1372 9.81598C44.1372 8.97489 43.9043 8.43617 43.4386 8.19983C42.9798 7.96349 42.3264 7.84532 41.4784 7.84532C40.6234 7.84532 39.897 7.98087 39.2992 8.25197C38.7014 8.52306 38.3156 9.36763 38.1418 10.7857C38.1001 11.1402 38.0793 11.4599 38.0793 11.7449C38.0793 12.6138 38.3087 13.1734 38.7674 13.4236C39.2332 13.6669 39.8935 13.7886 40.7485 13.7886ZM52.6234 8.21026H50.6111L51.0386 4.67559H54.9069L54.9382 4.36279H54.6671C54.0554 4.36279 53.5966 4.2342 53.2907 3.977C52.9918 3.71286 52.8737 3.32012 52.9362 2.79878C53.0474 1.86037 53.5618 1.24172 54.4794 0.942821C55.4039 0.643922 56.808 0.494472 58.6918 0.494472H63.3317L62.9146 3.92487H58.8482C58.0905 3.92487 57.7012 3.99091 57.6804 4.12298C57.6665 4.25505 57.6595 4.32456 57.6595 4.33151C57.6595 4.5609 58.0001 4.67559 58.6814 4.67559C58.7022 4.67559 58.7231 4.67559 58.7439 4.67559H62.8208L62.3829 8.21026H57.6595L56.5856 17H51.539L52.6234 8.21026ZM69.5835 0.494472L69.1664 3.9353H64.1095L64.5161 0.494472H69.5835ZM64.026 4.67559H69.083L67.5711 17H62.5037L64.026 4.67559ZM70.8657 0.0461223H75.9122L73.8269 17H68.7803L70.8657 0.0461223ZM91.4909 12.7563C91.1781 13.9797 90.6533 14.9007 89.9164 15.5194C89.1796 16.1381 88.3177 16.5656 87.3306 16.8019C86.3435 17.0313 84.922 17.146 83.0661 17.146C79.8824 17.146 77.804 16.6316 76.8309 15.6028C76.0593 14.7895 75.6735 13.6356 75.6735 12.1411C75.6735 11.7449 75.7013 11.3244 75.7569 10.8795C76.0141 8.76635 76.7475 7.18496 77.957 6.13534C79.1665 5.07876 81.3422 4.55047 84.4841 4.55047C87.6399 4.55047 89.6349 5.04053 90.4691 6.02064C91.3102 6.99381 91.7307 8.20331 91.7307 9.64915C91.7307 10.0384 91.7029 10.4485 91.6473 10.8795L91.4596 12.089L80.4907 12.0994C80.4976 12.8919 80.661 13.3889 80.9807 13.5905C81.4326 13.8824 82.2563 14.0284 83.4519 14.0284C84.1192 14.0284 84.5919 14.0145 84.8699 13.9867C85.1549 13.9519 85.4434 13.8129 85.7353 13.5696C86.0273 13.3263 86.274 13.0552 86.4756 12.7563H91.4909ZM86.8197 9.46147C86.8267 9.36415 86.8301 9.27031 86.8301 9.17995C86.8301 8.5891 86.639 8.18593 86.2567 7.97044C85.8813 7.75496 85.1688 7.64722 84.1192 7.64722C82.9583 7.64722 82.1277 7.80362 81.6272 8.11642C81.3005 8.318 81.0398 8.76635 80.8452 9.46147H86.8197Z" fill="white"/>
</svg>
