<svg width="148" height="16" viewBox="0 0 148 16" fill="none" xmlns="http://www.w3.org/2000/svg">
<path d="M11.7593 3.52C11.7593 4.59733 11.4766 5.49333 10.9113 6.208C10.3566 6.92267 9.56192 7.40267 8.52725 7.648L10.5593 12H7.91925L6.07925 7.824H3.72725L3.00725 12H0.60725L2.60725 0.575999H8.14325C8.82592 0.575999 9.43925 0.693333 9.98325 0.927999C10.5379 1.16267 10.9699 1.504 11.2793 1.952C11.5993 2.4 11.7593 2.92267 11.7593 3.52ZM6.84725 5.92C7.61525 5.92 8.21792 5.73333 8.65525 5.36C9.09258 4.976 9.31125 4.46933 9.31125 3.84C9.31125 3.40267 9.15658 3.06667 8.84725 2.832C8.54858 2.59733 8.08992 2.48 7.47125 2.48H4.68725L4.07925 5.92H6.84725ZM20.5347 9.536C20.1934 10.272 19.6601 10.9013 18.9348 11.424C18.2094 11.936 17.2228 12.192 15.9748 12.192C14.8761 12.192 13.9961 11.8827 13.3348 11.264C12.6734 10.6453 12.3428 9.808 12.3428 8.752C12.3428 7.73867 12.5454 6.82133 12.9508 6C13.3668 5.168 13.9534 4.51733 14.7108 4.048C15.4681 3.568 16.3588 3.328 17.3828 3.328C18.4814 3.328 19.3614 3.632 20.0228 4.24C20.6841 4.848 21.0148 5.696 21.0148 6.784C21.0148 7.22133 20.9508 7.70667 20.8228 8.24H14.6308C14.5988 8.464 14.5828 8.66667 14.5828 8.848C14.5828 9.392 14.7161 9.824 14.9828 10.144C15.2494 10.4533 15.6228 10.608 16.1028 10.608C16.6681 10.608 17.1214 10.4747 17.4628 10.208C17.8148 9.94133 18.0814 9.62667 18.2628 9.264L20.5347 9.536ZM17.2708 4.896C16.7054 4.896 16.2148 5.07733 15.7988 5.44C15.3828 5.80267 15.1001 6.256 14.9508 6.8H18.7908C18.8121 6.65067 18.8228 6.53333 18.8228 6.448C18.8228 6 18.6894 5.632 18.4228 5.344C18.1668 5.04533 17.7828 4.896 17.2708 4.896ZM30.121 11.408C29.8863 12.72 29.3423 13.6693 28.489 14.256C27.6463 14.8427 26.5957 15.136 25.337 15.136C24.2703 15.136 23.4063 14.9013 22.745 14.432C22.0837 13.9733 21.705 13.2693 21.609 12.32L23.849 12.144C23.8597 12.6027 23.9983 12.9333 24.265 13.136C24.5423 13.3493 24.9317 13.456 25.433 13.456C26.0837 13.456 26.6277 13.2747 27.065 12.912C27.5023 12.5493 27.785 11.9893 27.913 11.232L28.041 10.48H27.977C27.721 10.8533 27.3797 11.1253 26.953 11.296C26.537 11.4667 26.0143 11.552 25.385 11.552C24.809 11.552 24.2863 11.424 23.817 11.168C23.3477 10.9013 22.9797 10.528 22.713 10.048C22.4463 9.55733 22.313 8.98667 22.313 8.336C22.313 7.44 22.4943 6.608 22.857 5.84C23.2303 5.072 23.7477 4.464 24.409 4.016C25.081 3.55733 25.849 3.328 26.713 3.328C27.2357 3.328 27.7157 3.44 28.153 3.664C28.601 3.87733 28.9263 4.17067 29.129 4.544H29.193L29.369 3.536H31.513L30.121 11.408ZM26.185 9.872C26.697 9.872 27.1503 9.72267 27.545 9.424C27.9397 9.12533 28.2383 8.736 28.441 8.256C28.6543 7.776 28.761 7.28 28.761 6.768C28.761 6.24533 28.617 5.82933 28.329 5.52C28.0517 5.2 27.6677 5.04 27.177 5.04C26.6543 5.04 26.1957 5.18933 25.801 5.488C25.417 5.78667 25.1183 6.176 24.905 6.656C24.7023 7.136 24.601 7.632 24.601 8.144C24.601 8.66667 24.7397 9.088 25.017 9.408C25.2943 9.71733 25.6837 9.872 26.185 9.872ZM35.9249 3.536L34.4369 12H32.1969L33.6849 3.536H35.9249ZM36.4849 0.415999L36.1329 2.336H33.8929L34.2289 0.415999H36.4849ZM42.9361 6.096C42.8828 5.68 42.7121 5.36533 42.4241 5.152C42.1468 4.928 41.7948 4.816 41.3681 4.816C40.9521 4.816 40.5895 4.91733 40.2801 5.12C39.9708 5.312 39.8161 5.56267 39.8161 5.872C39.8161 6.11733 39.9121 6.29333 40.1041 6.4C40.3068 6.50667 40.6641 6.61867 41.1761 6.736L42.0081 6.928C42.5628 7.06667 43.0161 7.21067 43.3681 7.36C43.7308 7.50933 44.0295 7.73867 44.2641 8.048C44.4988 8.35733 44.6161 8.768 44.6161 9.28C44.6161 10.2293 44.2215 10.9547 43.4321 11.456C42.6535 11.9467 41.6561 12.192 40.4401 12.192C39.3308 12.192 38.4348 11.952 37.7521 11.472C37.0695 10.9813 36.7015 10.3253 36.6481 9.504L38.7441 9.232C38.7975 9.744 38.9788 10.1227 39.2881 10.368C39.5975 10.6027 40.0348 10.72 40.6001 10.72C41.0695 10.72 41.4748 10.6133 41.8161 10.4C42.1681 10.1867 42.3441 9.89333 42.3441 9.52C42.3441 9.296 42.2215 9.12 41.9761 8.992C41.7415 8.85333 41.3788 8.72533 40.8881 8.608L40.0081 8.4C39.5175 8.28267 39.1015 8.14933 38.7601 8C38.4188 7.84 38.1361 7.61067 37.9121 7.312C37.6881 7.01333 37.5761 6.61867 37.5761 6.128C37.5761 5.552 37.7575 5.05067 38.1201 4.624C38.4935 4.19733 38.9735 3.87733 39.5601 3.664C40.1575 3.44 40.7975 3.328 41.4801 3.328C42.1308 3.328 42.7175 3.43467 43.2401 3.648C43.7628 3.86133 44.1788 4.16 44.4881 4.544C44.7975 4.928 44.9681 5.36 45.0001 5.84L42.9361 6.096ZM49.7579 10.4C50.1312 10.4 50.4565 10.3573 50.7339 10.272L50.4299 12.016C50.0992 12.1333 49.6085 12.192 48.9579 12.192C48.2325 12.192 47.6832 12.0693 47.3099 11.824C46.9365 11.5787 46.7499 11.1627 46.7499 10.576C46.7499 10.4053 46.7659 10.208 46.7979 9.984L47.6779 5.04H46.3339L46.5899 3.536H47.9339L48.3499 1.168H50.6059L50.1899 3.536H51.9499L51.6939 5.04H49.9179L49.1179 9.664C49.0965 9.81333 49.0859 9.90933 49.0859 9.952C49.0859 10.1333 49.1339 10.256 49.2299 10.32C49.3365 10.3733 49.5125 10.4 49.7579 10.4ZM60.316 9.536C59.9747 10.272 59.4413 10.9013 58.716 11.424C57.9907 11.936 57.004 12.192 55.756 12.192C54.6573 12.192 53.7773 11.8827 53.116 11.264C52.4547 10.6453 52.124 9.808 52.124 8.752C52.124 7.73867 52.3267 6.82133 52.732 6C53.148 5.168 53.7347 4.51733 54.492 4.048C55.2493 3.568 56.14 3.328 57.164 3.328C58.2627 3.328 59.1427 3.632 59.804 4.24C60.4653 4.848 60.796 5.696 60.796 6.784C60.796 7.22133 60.732 7.70667 60.604 8.24H54.412C54.38 8.464 54.364 8.66667 54.364 8.848C54.364 9.392 54.4973 9.824 54.764 10.144C55.0307 10.4533 55.404 10.608 55.884 10.608C56.4493 10.608 56.9027 10.4747 57.244 10.208C57.596 9.94133 57.8627 9.62667 58.044 9.264L60.316 9.536ZM57.052 4.896C56.4867 4.896 55.996 5.07733 55.58 5.44C55.164 5.80267 54.8813 6.256 54.732 6.8H58.572C58.5933 6.65067 58.604 6.53333 58.604 6.448C58.604 6 58.4707 5.632 58.204 5.344C57.948 5.04533 57.564 4.896 57.052 4.896ZM65.2623 4.832H65.3263C65.6463 4.34133 66.0196 3.968 66.4463 3.712C66.8836 3.456 67.4223 3.328 68.0623 3.328C68.3609 3.328 68.5903 3.35467 68.7503 3.408L68.3823 5.488C68.3183 5.47733 68.1956 5.46667 68.0143 5.456C67.8329 5.43467 67.6729 5.424 67.5343 5.424C66.8303 5.424 66.2436 5.61067 65.7743 5.984C65.3049 6.34667 64.9956 6.93867 64.8463 7.76L64.0943 12H61.8543L63.3423 3.536H65.4863L65.2623 4.832ZM77.0816 9.536C76.7403 10.272 76.207 10.9013 75.4816 11.424C74.7563 11.936 73.7696 12.192 72.5216 12.192C71.423 12.192 70.543 11.8827 69.8816 11.264C69.2203 10.6453 68.8896 9.808 68.8896 8.752C68.8896 7.73867 69.0923 6.82133 69.4976 6C69.9136 5.168 70.5003 4.51733 71.2576 4.048C72.015 3.568 72.9056 3.328 73.9296 3.328C75.0283 3.328 75.9083 3.632 76.5696 4.24C77.231 4.848 77.5616 5.696 77.5616 6.784C77.5616 7.22133 77.4976 7.70667 77.3696 8.24H71.1776C71.1456 8.464 71.1296 8.66667 71.1296 8.848C71.1296 9.392 71.263 9.824 71.5296 10.144C71.7963 10.4533 72.1696 10.608 72.6496 10.608C73.215 10.608 73.6683 10.4747 74.0096 10.208C74.3616 9.94133 74.6283 9.62667 74.8096 9.264L77.0816 9.536ZM73.8176 4.896C73.2523 4.896 72.7616 5.07733 72.3456 5.44C71.9296 5.80267 71.647 6.256 71.4976 6.8H75.3376C75.359 6.65067 75.3696 6.53333 75.3696 6.448C75.3696 6 75.2363 5.632 74.9696 5.344C74.7136 5.04533 74.3296 4.896 73.8176 4.896ZM83.2599 3.328C83.8039 3.328 84.2945 3.44 84.7319 3.664C85.1692 3.87733 85.4839 4.16 85.6759 4.512H85.7399L86.4599 0.415999H88.6839L86.6519 12H84.5239L84.7159 10.896H84.6519C84.3319 11.344 83.9425 11.6747 83.4839 11.888C83.0359 12.0907 82.5025 12.192 81.8839 12.192C81.2972 12.192 80.7692 12.0533 80.2999 11.776C79.8305 11.4987 79.4625 11.104 79.1959 10.592C78.9292 10.0693 78.7959 9.46133 78.7959 8.768C78.7959 7.82933 78.9772 6.944 79.3399 6.112C79.7132 5.28 80.2359 4.608 80.9079 4.096C81.5905 3.584 82.3745 3.328 83.2599 3.328ZM82.6839 10.48C83.3025 10.48 83.8145 10.2773 84.2199 9.872C84.6359 9.456 84.9345 8.97067 85.1159 8.416C85.2972 7.85067 85.3879 7.33867 85.3879 6.88C85.3879 6.304 85.2439 5.856 84.9559 5.536C84.6785 5.20533 84.2839 5.04 83.7719 5.04C83.1532 5.04 82.6359 5.248 82.2199 5.664C81.8145 6.06933 81.5212 6.55467 81.3399 7.12C81.1585 7.68533 81.0679 8.20267 81.0679 8.672C81.0679 9.23733 81.2065 9.68 81.4839 10C81.7719 10.32 82.1719 10.48 82.6839 10.48ZM102.324 5.216L101.988 7.056H96.34L95.812 10.032H101.748L101.396 12H93.076L95.076 0.575999H103.396L103.076 2.48H97.14L96.676 5.216H102.324ZM106.004 12L104.308 3.536H106.58L107.604 9.536H107.668L110.596 3.536H113.124L108.66 12H106.004ZM121.347 9.536C121.006 10.272 120.473 10.9013 119.747 11.424C119.022 11.936 118.035 12.192 116.787 12.192C115.689 12.192 114.809 11.8827 114.147 11.264C113.486 10.6453 113.155 9.808 113.155 8.752C113.155 7.73867 113.358 6.82133 113.763 6C114.179 5.168 114.766 4.51733 115.523 4.048C116.281 3.568 117.171 3.328 118.195 3.328C119.294 3.328 120.174 3.632 120.835 4.24C121.497 4.848 121.827 5.696 121.827 6.784C121.827 7.22133 121.763 7.70667 121.635 8.24H115.443C115.411 8.464 115.395 8.66667 115.395 8.848C115.395 9.392 115.529 9.824 115.795 10.144C116.062 10.4533 116.435 10.608 116.915 10.608C117.481 10.608 117.934 10.4747 118.275 10.208C118.627 9.94133 118.894 9.62667 119.075 9.264L121.347 9.536ZM118.083 4.896C117.518 4.896 117.027 5.07733 116.611 5.44C116.195 5.80267 115.913 6.256 115.763 6.8H119.603C119.625 6.65067 119.635 6.53333 119.635 6.448C119.635 6 119.502 5.632 119.235 5.344C118.979 5.04533 118.595 4.896 118.083 4.896ZM126.39 4.656C126.752 4.208 127.152 3.87733 127.59 3.664C128.027 3.44 128.571 3.328 129.222 3.328C129.936 3.328 130.539 3.54133 131.03 3.968C131.531 4.384 131.782 4.98667 131.782 5.776C131.782 6.02133 131.76 6.25067 131.718 6.464L130.758 12H128.518L129.398 6.96C129.43 6.71467 129.446 6.50133 129.446 6.32C129.446 5.89333 129.344 5.58933 129.142 5.408C128.939 5.22667 128.624 5.136 128.198 5.136C127.675 5.136 127.195 5.33867 126.758 5.744C126.331 6.13867 126.054 6.69333 125.926 7.408L125.126 12H122.886L124.374 3.536H126.518L126.326 4.656H126.39ZM136.68 10.4C137.053 10.4 137.378 10.3573 137.656 10.272L137.352 12.016C137.021 12.1333 136.53 12.192 135.88 12.192C135.154 12.192 134.605 12.0693 134.232 11.824C133.858 11.5787 133.672 11.1627 133.672 10.576C133.672 10.4053 133.688 10.208 133.72 9.984L134.6 5.04H133.256L133.512 3.536H134.856L135.272 1.168H137.528L137.112 3.536H138.872L138.616 5.04H136.84L136.04 9.664C136.018 9.81333 136.008 9.90933 136.008 9.952C136.008 10.1333 136.056 10.256 136.152 10.32C136.258 10.3733 136.434 10.4 136.68 10.4ZM145.311 6.096C145.258 5.68 145.087 5.36533 144.799 5.152C144.522 4.928 144.17 4.816 143.743 4.816C143.327 4.816 142.964 4.91733 142.655 5.12C142.346 5.312 142.191 5.56267 142.191 5.872C142.191 6.11733 142.287 6.29333 142.479 6.4C142.682 6.50667 143.039 6.61867 143.551 6.736L144.383 6.928C144.938 7.06667 145.391 7.21067 145.743 7.36C146.106 7.50933 146.404 7.73867 146.639 8.048C146.874 8.35733 146.991 8.768 146.991 9.28C146.991 10.2293 146.596 10.9547 145.807 11.456C145.028 11.9467 144.031 12.192 142.815 12.192C141.706 12.192 140.81 11.952 140.127 11.472C139.444 10.9813 139.076 10.3253 139.023 9.504L141.119 9.232C141.172 9.744 141.354 10.1227 141.663 10.368C141.972 10.6027 142.41 10.72 142.975 10.72C143.444 10.72 143.85 10.6133 144.191 10.4C144.543 10.1867 144.719 9.89333 144.719 9.52C144.719 9.296 144.596 9.12 144.351 8.992C144.116 8.85333 143.754 8.72533 143.263 8.608L142.383 8.4C141.892 8.28267 141.476 8.14933 141.135 8C140.794 7.84 140.511 7.61067 140.287 7.312C140.063 7.01333 139.951 6.61867 139.951 6.128C139.951 5.552 140.132 5.05067 140.495 4.624C140.868 4.19733 141.348 3.87733 141.935 3.664C142.532 3.44 143.172 3.328 143.855 3.328C144.506 3.328 145.092 3.43467 145.615 3.648C146.138 3.86133 146.554 4.16 146.863 4.544C147.172 4.928 147.343 5.36 147.375 5.84L145.311 6.096Z" fill="white"/>
</svg>
