<svg width="88" height="42" viewBox="0 0 88 42" fill="none" xmlns="http://www.w3.org/2000/svg">
<path fill-rule="evenodd" clip-rule="evenodd" d="M10.6963 1.77358C10.1554 2.74901 9.12175 4.61679 8.39945 5.92412L7.08614 8.30108L8.26612 8.35484C8.91509 8.38446 16.2086 8.40092 24.4739 8.39141L39.5017 8.37422L39.8329 7.78912C40.0152 7.46732 41.0444 5.6078 42.1201 3.65687L44.0761 0.109706L43.6189 0.06341C43.3675 0.0379583 36.0783 0.0132379 27.4209 0.00855706L11.68 0L10.6963 1.77358ZM50.3882 0.530245C48.3156 4.30669 32.1675 33.4854 32.1134 33.5517C32.0543 33.6242 29.4388 33.6432 19.4802 33.6432C11.2517 33.6432 6.93002 33.668 6.94596 33.7153C6.95929 33.7551 7.98605 35.6306 9.22763 37.8833L11.4851 41.9791L24.0979 41.9799L36.7108 41.9808L36.9971 41.4871C37.248 41.0547 45.8007 25.5918 52.8283 12.8654L55.2351 8.50682L57.093 8.45884C58.1148 8.43236 63.779 8.41079 69.68 8.41079C75.5811 8.41079 80.4092 8.39272 80.4092 8.37056C80.4092 8.29669 80.1854 7.88347 78.0251 3.9677L75.8765 0.0731373H63.2579H50.6392L50.3882 0.530245ZM1.23775 18.8877C0.614412 20.0241 0.0663693 21.029 0.0198373 21.121C-0.0558955 21.2705 0.0475089 21.4914 1.00393 23.2238L2.07256 25.1596L16.1621 25.1412L30.2516 25.1227L32.4997 21.0635C33.7361 18.831 34.7485 16.9633 34.7494 16.913C34.7507 16.8402 31.4654 16.8216 18.561 16.8216H2.37105L1.23775 18.8877ZM54.7585 20.8624C53.5301 23.0848 52.5057 24.9556 52.4823 25.0195C52.4446 25.1222 52.5999 25.1415 53.8083 25.1839C55.5694 25.2458 83.4532 25.2332 84.258 25.1703L84.8664 25.1227L86.0603 22.9676C86.717 21.7823 87.2542 20.7813 87.2542 20.7431C87.2542 20.7049 86.777 19.8069 86.1937 18.7476L85.1331 16.8216H71.0626H56.9921L54.7585 20.8624ZM47.6589 33.7346C47.6027 33.806 44.0867 40.1541 43.307 41.5919L43.1411 41.8977L43.5883 41.9426C43.8343 41.9673 51.1301 41.9777 59.8011 41.9659L75.5666 41.9442L77.8369 37.8486C79.0857 35.5959 80.1096 33.7282 80.1126 33.698C80.1155 33.6678 72.8308 33.6432 63.9243 33.6432C51.0564 33.6432 47.716 33.662 47.6589 33.7346Z" fill="white"/>
</svg>
