<svg width="97" height="22" viewBox="0 0 97 22" fill="none" xmlns="http://www.w3.org/2000/svg">
<path d="M8.36224 17.0834C5.49837 17.0834 3.53814 16.7532 2.48156 16.0929C1.42499 15.4325 0.8967 14.2647 0.8967 12.5895C0.8967 12.1655 0.92798 11.7032 0.99054 11.2027H6.08922C6.06141 11.4043 6.04751 11.5885 6.04751 11.7554C6.04751 12.4783 6.30818 12.8953 6.82951 13.0066C7.35085 13.1178 8.00774 13.1734 8.80017 13.1734C9.58565 13.1734 10.2738 13.1456 10.8647 13.09C11.4625 13.0344 11.7996 12.7111 11.8761 12.1203C11.883 12.0855 11.8865 12.0508 11.8865 12.016C11.8865 11.5364 11.4659 11.2514 10.6248 11.161C9.79071 11.0637 8.70285 10.9212 7.36128 10.7335C5.03959 10.3373 3.49643 9.85073 2.73181 9.27379C1.97413 8.68989 1.59529 7.85575 1.59529 6.77137C1.59529 6.53503 1.61267 6.28479 1.64742 6.02064C1.92547 3.75457 2.75266 2.26702 4.12899 1.558C5.51227 0.848981 7.55939 0.494472 10.2703 0.494472C12.9743 0.494472 14.8755 0.852457 15.9738 1.56843C17.072 2.27744 17.6212 3.45219 17.6212 5.09266C17.6212 5.47498 17.5934 5.88857 17.5378 6.33345H12.4495C12.4704 6.15967 12.4808 5.99631 12.4808 5.84339C12.4808 5.13437 12.2062 4.7173 11.6571 4.59218C11.108 4.46011 10.465 4.39407 9.72815 4.39407C8.90096 4.39407 8.18847 4.42883 7.59067 4.49834C6.99287 4.56785 6.65921 4.89803 6.5897 5.48888C6.58275 5.53754 6.57927 5.58272 6.57927 5.62443C6.57927 6.14576 7.01024 6.44814 7.87219 6.53155C8.73413 6.60802 9.80809 6.74356 11.0941 6.9382C13.5409 7.34136 15.1327 7.81057 15.8695 8.34581C16.6063 8.87409 16.9747 9.65958 16.9747 10.7022C16.9747 10.9247 16.9608 11.161 16.933 11.4113C16.6411 13.7747 15.8313 15.3109 14.5036 16.0199C13.1759 16.7289 11.1288 17.0834 8.36224 17.0834ZM21.9998 21.0351H16.9428L18.9552 4.66517H24.0121L23.9287 5.3012C23.9287 5.36376 23.9009 5.40894 23.8453 5.43675L22.6671 6.22918L22.8548 6.40643L22.8965 6.38558C23.2023 6.14229 23.5742 5.899 24.0121 5.65571C25.305 4.93974 26.7961 4.58175 28.4852 4.58175C28.5756 4.58175 28.6694 4.58175 28.7667 4.58175C30.5949 4.63041 31.8947 5.14827 32.6663 6.13534C33.4449 7.1224 33.8341 8.3041 33.8341 9.68043C33.8341 10.0558 33.8098 10.4485 33.7611 10.8587C33.5248 12.7841 32.8366 14.2856 31.6966 15.363C30.5636 16.4404 29.0726 17.0139 27.2236 17.0834C27.1123 17.0834 27.0046 17.0834 26.9003 17.0834C25.239 17.0834 23.8523 16.7254 22.7401 16.0095C22.4064 15.794 22.1249 15.575 21.8955 15.3526L21.76 15.2587L21.5097 15.4256L22.5211 16.2388C22.5559 16.2667 22.5732 16.3084 22.5732 16.364L21.9998 21.0351ZM23.814 13.2672C24.3632 13.5592 25.0096 13.7052 25.7534 13.7052C26.5875 13.7052 27.2375 13.5627 27.7032 13.2777C28.1759 12.9927 28.4921 12.1759 28.652 10.8274C28.7007 10.4312 28.725 10.0766 28.725 9.76384C28.725 9.04092 28.5547 8.55782 28.2141 8.31453C27.8804 8.06428 27.2966 7.93916 26.4624 7.93916C25.7186 7.93916 25.0374 8.08861 24.4188 8.38751C23.8418 8.65861 23.4838 9.23208 23.3448 10.1079L23.1676 11.5364C23.1606 11.6407 23.1571 11.7449 23.1571 11.8492C23.1571 12.5582 23.3761 13.0309 23.814 13.2672ZM42.1846 17.1043C39.856 17.1043 38.0591 16.6385 36.794 15.7071C35.5358 14.7687 34.9068 13.4619 34.9068 11.7866C34.9068 11.4599 34.9276 11.1158 34.9693 10.7544C35.2335 8.57172 36.1754 6.99033 37.795 6.01022C39.4215 5.02315 41.3991 4.52962 43.7278 4.52962C46.0564 4.52962 47.8533 4.98144 49.1184 5.8851C50.3835 6.78875 51.0161 8.07124 51.0161 9.73256C51.0161 10.0523 50.9952 10.3929 50.9535 10.7544C50.6824 12.9509 49.7336 14.5601 48.107 15.582C46.4874 16.5968 44.5133 17.1043 42.1846 17.1043ZM42.6017 13.7886C43.4497 13.7886 44.1692 13.6495 44.76 13.3715C45.3578 13.0865 45.7436 12.2246 45.9174 10.7857C45.9661 10.4242 45.9904 10.101 45.9904 9.81598C45.9904 8.97489 45.7575 8.43617 45.2918 8.19983C44.833 7.96349 44.1796 7.84532 43.3316 7.84532C42.4766 7.84532 41.7502 7.98087 41.1524 8.25197C40.5546 8.52306 40.1688 9.36763 39.995 10.7857C39.9533 11.1402 39.9325 11.4599 39.9325 11.7449C39.9325 12.6138 40.1618 13.1734 40.6206 13.4236C41.0863 13.6669 41.7467 13.7886 42.6017 13.7886ZM61.8275 10.7231C61.89 10.2087 61.9213 9.77427 61.9213 9.41976C61.9213 8.83586 61.8101 8.4466 61.5877 8.25197C61.3722 8.05038 60.8543 7.94959 60.0341 7.94959C59.2972 7.94959 58.6682 8.1338 58.1468 8.50221C57.7506 8.7872 57.4726 9.21123 57.3127 9.77427L56.4264 17H51.3799L52.8917 4.66517H57.9487L57.8445 5.50973C57.8305 5.56534 57.8027 5.61052 57.761 5.64528L56.6558 6.60454L56.8539 6.7818L56.9478 6.69838C57.1841 6.45509 57.4552 6.21528 57.761 5.97894C58.9705 5.04053 60.4998 4.57133 62.3488 4.57133C64.2395 4.57133 65.4873 4.95017 66.092 5.70784C66.6968 6.45857 66.9991 7.51862 66.9991 8.888C66.9991 9.43714 66.9574 10.0488 66.874 10.7231H61.8275ZM74.7754 17C72.5649 17 71.1851 16.6976 70.6359 16.0929C70.0868 15.4881 69.8122 14.7165 69.8122 13.7781C69.8122 13.5279 69.8296 13.2603 69.8644 12.9753L70.4483 8.21026H68.3838L68.8113 4.67559H69.3639C69.6975 4.67559 69.9999 4.61651 70.271 4.49834C70.5421 4.38017 70.7784 4.21682 70.98 4.00828C71.1886 3.7928 71.3554 3.5356 71.4805 3.2367C71.6126 2.93085 71.6995 2.5972 71.7412 2.23574L71.9497 0.494472H77.0171L76.8086 2.23574C76.7669 2.59025 76.6939 2.90305 76.5896 3.17414C76.4853 3.43829 76.3428 3.66072 76.1621 3.84145C75.9814 4.01523 75.7589 4.14731 75.4948 4.23767C75.2307 4.32109 74.9109 4.36279 74.5355 4.36279L74.4938 4.67559H80.7186L80.2807 8.21026H75.4948L75.036 11.8805C75.0291 11.95 75.0256 12.0195 75.0256 12.089C75.0256 12.4852 75.2029 12.7598 75.5574 12.9127C75.9119 13.0656 76.3463 13.1421 76.8607 13.1421C77.4655 13.1421 78.4178 13.1386 79.7176 13.1317L79.238 17C77.4933 17 76.0057 17 74.7754 17ZM88.2177 17.1043C85.3121 17.1043 83.3727 16.8401 82.3996 16.3118C81.4334 15.7835 80.9503 14.866 80.9503 13.5592C80.9503 13.2881 80.9676 13.0031 81.0024 12.7042H85.7778C85.7639 12.8015 85.757 12.8953 85.757 12.9857C85.757 13.5418 86.0281 13.8442 86.5703 13.8928C87.1125 13.9345 87.8736 13.9554 88.8537 13.9554C89.521 13.9554 90.0771 13.9484 90.522 13.9345C90.9669 13.9137 91.2206 13.6634 91.2832 13.1838C91.2832 13.156 91.2832 13.1317 91.2832 13.1108C91.2832 12.7563 90.953 12.5652 90.2926 12.5374C89.6323 12.5026 88.6765 12.4574 87.4253 12.4018C85.6805 12.3392 84.2451 12.0577 83.119 11.5572C81.9999 11.0498 81.4403 10.1948 81.4403 8.99226C81.4403 8.80458 81.4542 8.60648 81.482 8.39794C81.6419 7.04942 82.3474 6.07625 83.5987 5.47845C84.8499 4.8737 86.7024 4.57133 89.1561 4.57133C92.1938 4.57133 94.1957 4.85285 95.1619 5.41589C96.1351 5.97199 96.6217 6.88606 96.6217 8.15813C96.6217 8.41532 96.6043 8.68294 96.5695 8.96098H91.8254C91.8393 8.86367 91.8462 8.7733 91.8462 8.68989C91.8462 8.11989 91.5612 7.81404 90.9912 7.77234C90.4282 7.72368 89.6288 7.69935 88.5931 7.69935C87.8423 7.69935 87.2828 7.7202 86.9144 7.76191C86.5529 7.79666 86.3444 8.05038 86.2888 8.52306C86.2818 8.55087 86.2783 8.57519 86.2783 8.59605C86.2783 8.95056 86.6711 9.14519 87.4566 9.17995C88.242 9.20775 89.2534 9.25293 90.4907 9.31549C92.1868 9.39891 93.5492 9.6561 94.578 10.0871C95.6068 10.518 96.1212 11.2757 96.1212 12.3601C96.1212 12.5339 96.1107 12.7146 96.0899 12.9023C95.9022 14.4733 95.2523 15.5681 94.1401 16.1867C93.0349 16.7984 91.0607 17.1043 88.2177 17.1043Z" fill="white"/>
</svg>
