<svg width="79" height="26" viewBox="0 0 79 26" fill="none" xmlns="http://www.w3.org/2000/svg">
<g filter="url(#filter0_d_238_913)">
<path d="M13.312 17H8.20294L9.71482 4.7173H4.7934L5.30431 0.494472H20.2563L19.7349 4.7173H13.4059L13.3642 5.0301H13.6144C13.9689 5.0301 14.24 5.13785 14.4277 5.35333C14.6154 5.56187 14.6849 5.84339 14.6362 6.1979L13.312 17ZM33.914 12.7563C33.6012 13.9797 33.0764 14.9007 32.3395 15.5194C31.6027 16.1381 30.7408 16.5656 29.7537 16.8019C28.7666 17.0313 27.3451 17.146 25.4892 17.146C22.3055 17.146 20.2271 16.6316 19.254 15.6028C18.4824 14.7895 18.0966 13.6356 18.0966 12.1411C18.0966 11.7449 18.1244 11.3244 18.18 10.8795C18.4372 8.76635 19.1706 7.18496 20.3801 6.13534C21.5896 5.07876 23.7653 4.55047 26.9072 4.55047C30.063 4.55047 32.058 5.04053 32.8922 6.02064C33.7332 6.99381 34.1538 8.20331 34.1538 9.64915C34.1538 10.0384 34.126 10.4485 34.0704 10.8795L33.8827 12.089L22.9138 12.0994C22.9207 12.8919 23.0841 13.3889 23.4038 13.5905C23.8557 13.8824 24.6794 14.0284 25.875 14.0284C26.5423 14.0284 27.015 14.0145 27.293 13.9867C27.578 13.9519 27.8665 13.8129 28.1584 13.5696C28.4504 13.3263 28.6971 13.0552 28.8987 12.7563H33.914ZM29.2428 9.46147C29.2497 9.36415 29.2532 9.27031 29.2532 9.17995C29.2532 8.5891 29.0621 8.18593 28.6798 7.97044C28.3044 7.75496 27.5919 7.64722 26.5423 7.64722C25.3814 7.64722 24.5508 7.80362 24.0503 8.11642C23.7236 8.318 23.4629 8.76635 23.2683 9.46147H29.2428ZM46.3027 14.8625L46.0629 14.727C45.4443 15.4082 44.9716 15.8704 44.6449 16.1137C44.3182 16.3501 43.9393 16.5447 43.5084 16.6976C43.0843 16.8506 42.6117 16.9687 42.0903 17.0521C41.5759 17.1355 41.0303 17.1773 40.4533 17.1773C39.9598 17.1773 39.4315 17.1425 38.8685 17.073C38.3124 17.0035 37.7841 16.8853 37.2836 16.7185C36.7831 16.5517 36.3417 16.3188 35.9594 16.0199C35.5771 15.714 35.306 15.3769 35.1461 15.0085C34.9862 14.6331 34.9063 14.2369 34.9063 13.8198C34.9063 13.6391 34.9202 13.4445 34.948 13.2359C35.0314 12.5756 35.2191 12.0473 35.5111 11.6511C35.803 11.2549 36.1679 10.9038 36.6059 10.598C37.0438 10.2921 37.5617 10.0558 38.1595 9.88896C38.7573 9.71518 39.3724 9.59006 40.005 9.5136C40.6445 9.43714 41.2527 9.39891 41.8297 9.39891H45.8752L45.9065 9.19037C45.9135 9.10696 45.9169 9.0305 45.9169 8.96098C45.9169 8.63428 45.8231 8.36318 45.6354 8.1477C45.4477 7.92526 45.1315 7.79319 44.6866 7.75148C44.2417 7.70978 43.7482 7.68892 43.206 7.68892C42.7125 7.68892 42.2676 7.69935 41.8714 7.7202C41.4821 7.7341 41.1172 7.84532 40.7766 8.05386C40.4429 8.25544 40.2309 8.59605 40.1405 9.07568H35.4902C35.7057 7.90788 36.1575 7.01814 36.8457 6.40643C37.5338 5.79473 38.2776 5.37419 39.077 5.1448C39.8764 4.90846 40.6271 4.75206 41.3292 4.67559C42.0382 4.59218 42.8654 4.55047 43.8107 4.55047C45.764 4.55047 47.1855 4.7173 48.0753 5.05096C48.972 5.37766 49.6775 5.86772 50.1919 6.52113C50.7063 7.16758 50.9635 7.93916 50.9635 8.83586C50.9635 9.0722 50.9461 9.32244 50.9114 9.58659L50.0042 17H45.0932L45.1454 16.5621C45.1662 16.4022 45.2184 16.2354 45.3018 16.0616C45.3852 15.8878 45.486 15.7384 45.6041 15.6132L46.3027 14.8625ZM41.9027 14.1014C42.2016 14.1014 42.5317 14.077 42.8932 14.0284C43.2547 13.9797 43.6231 13.9067 43.9984 13.8094C44.3807 13.7052 44.697 13.5731 44.9473 13.4132C45.1975 13.2533 45.3643 13.0622 45.4477 12.8397L45.6771 12.1203H42.0173C41.7463 12.1203 41.496 12.1307 41.2666 12.1516C41.0372 12.1724 40.8356 12.2176 40.6619 12.2871C40.495 12.3566 40.3595 12.4574 40.2552 12.5895C40.151 12.7216 40.0849 12.8988 40.0571 13.1213C40.0502 13.1699 40.0467 13.2186 40.0467 13.2672C40.0467 13.4271 40.0919 13.5696 40.1822 13.6947C40.2726 13.8129 40.4082 13.9033 40.5889 13.9658C40.7766 14.0284 40.9851 14.0666 41.2145 14.0805C41.4508 14.0944 41.6802 14.1014 41.9027 14.1014ZM60.8273 10.6501C60.883 10.1913 60.9108 9.7986 60.9108 9.47189C60.9108 8.93665 60.8134 8.55087 60.6188 8.31453C60.4242 8.07819 60.0453 7.96002 59.4823 7.96002C58.8636 7.96002 58.3215 8.15465 57.8557 8.54391C57.5151 8.82196 57.2614 9.30159 57.0946 9.9828L56.2292 17H51.1826L52.6945 4.66517H57.7515L57.6472 5.49931C57.6333 5.56187 57.609 5.60705 57.5742 5.63485L56.4585 6.63582L56.6462 6.81308L57.032 6.48985C57.1154 6.40643 57.1988 6.32649 57.2823 6.25003C58.4709 5.15175 59.8542 4.60261 61.4321 4.60261C61.5086 4.60261 61.585 4.60261 61.6615 4.60261C63.4479 4.66517 64.6505 5.21778 65.2691 6.26046C65.3386 6.37168 65.4012 6.4829 65.4568 6.59411C65.5194 6.54546 65.5819 6.4968 65.6445 6.44814C67.1529 5.21778 68.71 4.60261 70.3157 4.60261C70.3852 4.60261 70.4547 4.60261 70.5242 4.60261C72.3107 4.66517 73.4646 5.15522 73.9859 6.07278C74.5142 6.99033 74.7783 7.99477 74.7783 9.0861C74.7783 9.42671 74.7575 9.7847 74.7158 10.1601L73.8712 17H68.8351L69.6171 10.6501C69.6727 10.1635 69.7005 9.74994 69.7005 9.40933C69.7005 8.90885 69.6136 8.54391 69.4398 8.31453C69.273 8.07819 68.9081 7.96002 68.345 7.96002C67.7194 7.96002 67.1738 8.15465 66.708 8.54391C66.3535 8.84281 66.0928 9.36415 65.926 10.1079C65.926 10.1288 65.9225 10.1462 65.9156 10.1601L65.0815 17H60.0453L60.8273 10.6501Z" fill="white"/>
</g>
<defs>
<filter id="filter0_d_238_913" x="0.792969" y="0.494141" width="77.9854" height="24.6836" filterUnits="userSpaceOnUse" color-interpolation-filters="sRGB">
<feFlood flood-opacity="0" result="BackgroundImageFix"/>
<feColorMatrix in="SourceAlpha" type="matrix" values="0 0 0 0 0 0 0 0 0 0 0 0 0 0 0 0 0 0 127 0" result="hardAlpha"/>
<feOffset dy="4"/>
<feGaussianBlur stdDeviation="2"/>
<feComposite in2="hardAlpha" operator="out"/>
<feColorMatrix type="matrix" values="0 0 0 0 0 0 0 0 0 0 0 0 0 0 0 0 0 0 0.25 0"/>
<feBlend mode="normal" in2="BackgroundImageFix" result="effect1_dropShadow_238_913"/>
<feBlend mode="normal" in="SourceGraphic" in2="effect1_dropShadow_238_913" result="shape"/>
</filter>
</defs>
</svg>
