<svg width="23" height="20" viewBox="0 0 23 20" fill="none" xmlns="http://www.w3.org/2000/svg">
<g id="Group 117">
<path id="Vector" d="M17.2129 19C17.2129 16.8783 16.37 14.8434 14.8697 13.3431C13.3695 11.8429 11.3346 11 9.21289 11C7.09116 11 5.05633 11.8429 3.55604 13.3431C2.05575 14.8434 1.21289 16.8783 1.21289 19" stroke="#030303" stroke-width="2" stroke-linecap="round" stroke-linejoin="round"/>
<path id="Vector_2" d="M9.21289 11C11.9743 11 14.2129 8.76142 14.2129 6C14.2129 3.23858 11.9743 1 9.21289 1C6.45147 1 4.21289 3.23858 4.21289 6C4.21289 8.76142 6.45147 11 9.21289 11Z" stroke="#030303" stroke-width="2" stroke-linecap="round" stroke-linejoin="round"/>
<path id="Vector_3" d="M21.2127 18.0002C21.2127 14.6302 19.2127 11.5002 17.2127 10.0002C17.8701 9.50696 18.3958 8.85928 18.7433 8.11446C19.0907 7.36965 19.2492 6.55066 19.2047 5.73C19.1602 4.90933 18.9141 4.11228 18.4882 3.40939C18.0622 2.70651 17.4696 2.11946 16.7627 1.7002" stroke="#030303" stroke-width="2" stroke-linecap="round" stroke-linejoin="round"/>
</g>
</svg>
