<svg width="22" height="21" viewBox="0 0 22 21" fill="none" xmlns="http://www.w3.org/2000/svg">
<g id="tee" clip-path="url(#clip0_238_824)">
<path id="Vector" d="M19.5968 2.387L15.1035 1C15.1035 2.00782 14.6711 2.97437 13.9016 3.68701C13.132 4.39964 12.0883 4.8 11 4.8C9.91169 4.8 8.86796 4.39964 8.09841 3.68701C7.32886 2.97437 6.89653 2.00782 6.89653 1L2.40323 2.387C1.9389 2.53025 1.54517 2.8225 1.29309 3.21098C1.04101 3.59946 0.947189 4.05859 1.02856 4.5055L1.62357 7.802C1.66263 8.02517 1.78635 8.22812 1.97251 8.37439C2.15866 8.52066 2.39504 8.60065 2.63918 8.6H4.84479V18.1C4.84479 19.145 5.76807 20 6.89653 20H15.1035C15.6476 20 16.1695 19.7998 16.5543 19.4435C16.939 19.0872 17.1552 18.6039 17.1552 18.1V8.6H19.3608C19.605 8.60065 19.8413 8.52066 20.0275 8.37439C20.2137 8.22812 20.3374 8.02517 20.3764 7.802L20.9714 4.5055C21.0528 4.05859 20.959 3.59946 20.7069 3.21098C20.4548 2.8225 20.0611 2.53025 19.5968 2.387Z" stroke="white" stroke-width="2" stroke-linecap="round" stroke-linejoin="round"/>
</g>
<defs>
<clipPath id="clip0_238_824">
<rect width="22" height="21" fill="white"/>
</clipPath>
</defs>
</svg>
