<svg width="135" height="18" viewBox="0 0 135 18" fill="none" xmlns="http://www.w3.org/2000/svg">
<path d="M13.0666 0.494472H18.6554L10.7415 10.9525L10.0012 17H4.9025L5.6428 10.9525L0.273029 0.494472H5.86176L8.23906 5.75997C8.35028 5.91985 8.43369 6.11448 8.4893 6.34387C8.54491 6.57326 8.55881 6.7957 8.53101 7.01118L8.41631 7.90788H8.72911L8.84381 7.01118C8.87161 6.7957 8.93765 6.57326 9.04192 6.34387C9.15314 6.11448 9.28521 5.91638 9.43813 5.74955L13.0666 0.494472ZM21.801 17.1043C19.4723 17.1043 17.6755 16.6385 16.4104 15.7071C15.1522 14.7687 14.5231 13.4619 14.5231 11.7866C14.5231 11.4599 14.544 11.1158 14.5857 10.7544C14.8498 8.57172 15.7917 6.99033 17.4113 6.01022C19.0379 5.02315 21.0155 4.52962 23.3441 4.52962C25.6728 4.52962 27.4697 4.98144 28.7348 5.8851C29.9999 6.78875 30.6324 8.07124 30.6324 9.73256C30.6324 10.0523 30.6116 10.3929 30.5699 10.7544C30.2988 12.9509 29.3499 14.5601 27.7234 15.582C26.1038 16.5968 24.1296 17.1043 21.801 17.1043ZM22.2181 13.7886C23.0661 13.7886 23.7855 13.6495 24.3764 13.3715C24.9742 13.0865 25.36 12.2246 25.5338 10.7857C25.5824 10.4242 25.6067 10.101 25.6067 9.81598C25.6067 8.97489 25.3739 8.43617 24.9082 8.19983C24.4494 7.96349 23.796 7.84532 22.9479 7.84532C22.0929 7.84532 21.3665 7.98087 20.7687 8.25197C20.1709 8.52306 19.7852 9.36763 19.6114 10.7857C19.5697 11.1402 19.5488 11.4599 19.5488 11.7449C19.5488 12.6138 19.7782 13.1734 20.237 13.4236C20.7027 13.6669 21.3631 13.7886 22.2181 13.7886ZM36.8248 10.6188C36.7553 11.2097 36.7205 11.7032 36.7205 12.0994C36.7205 12.7042 36.8283 13.1247 37.0437 13.3611C37.2592 13.5974 37.7041 13.7156 38.3784 13.7156C39.143 13.7156 39.8451 13.4862 40.4846 13.0274C40.985 12.659 41.3326 12.0682 41.5272 11.2549L42.3405 4.66517H47.3871L45.8752 17H41.0476L41.1623 16.0512C41.1623 15.9956 41.1866 15.9504 41.2353 15.9156L42.3405 14.9564L42.1528 14.7791L41.9443 14.9147C41.8748 14.9842 41.8053 15.0537 41.7358 15.1232C40.3664 16.4439 38.5104 17.1043 36.1679 17.1043C34.305 17.1043 33.0851 16.6316 32.5081 15.6862C31.9381 14.7409 31.6531 13.6391 31.6531 12.381C31.6531 11.9291 31.6844 11.446 31.747 10.9316L32.5185 4.67559H37.5546L36.8248 10.6188ZM57.5263 10.7231C57.5888 10.2087 57.6201 9.77427 57.6201 9.41976C57.6201 8.83586 57.5089 8.4466 57.2864 8.25197C57.071 8.05038 56.5531 7.94959 55.7329 7.94959C54.996 7.94959 54.367 8.1338 53.8456 8.50221C53.4494 8.7872 53.1714 9.21123 53.0115 9.77427L52.1252 17H47.0787L48.5905 4.66517H53.6475L53.5432 5.50973C53.5293 5.56534 53.5015 5.61052 53.4598 5.64528L52.3546 6.60454L52.5527 6.7818L52.6465 6.69838C52.8829 6.45509 53.154 6.21528 53.4598 5.97894C54.6693 5.04053 56.1986 4.57133 58.0476 4.57133C59.9383 4.57133 61.186 4.95017 61.7908 5.70784C62.3955 6.45857 62.6979 7.51862 62.6979 8.888C62.6979 9.43714 62.6562 10.0488 62.5728 10.7231H57.5263ZM79.1321 17.0834C76.581 17.0834 74.7111 16.5169 73.5225 15.3839C72.3408 14.2508 71.75 12.6555 71.75 10.598C71.75 10.028 71.7882 9.41976 71.8646 8.7733C72.2331 5.76345 73.2375 3.63292 74.878 2.38171C76.5254 1.12355 78.6212 0.494472 81.1653 0.494472C83.7303 0.494472 85.5584 1.02971 86.6498 2.10019C87.7411 3.17067 88.2868 4.59218 88.2868 6.36473C88.2868 6.81655 88.2555 7.29271 88.1929 7.79319L83.0317 7.68892C83.0942 7.17454 83.1255 6.72966 83.1255 6.3543C83.1255 5.49236 82.9239 4.96059 82.5208 4.75901C82.1246 4.55742 81.492 4.45663 80.6231 4.45663C79.7403 4.45663 78.9861 4.63389 78.3605 4.9884C77.7419 5.33595 77.3005 6.59759 77.0363 8.7733C76.9459 9.51013 76.9008 10.1392 76.9008 10.6605C76.9008 11.7032 77.1232 12.374 77.5681 12.6729C78.0129 12.9718 78.6768 13.1213 79.5596 13.1213C80.4215 13.1213 81.1201 12.9927 81.6554 12.7355C82.1975 12.4783 82.5694 11.5225 82.771 9.86811L87.9531 9.76384C87.6473 12.2176 86.7401 14.0527 85.2317 15.2692C83.7303 16.4787 81.6971 17.0834 79.1321 17.0834ZM100.053 14.8625L99.8127 14.727C99.1941 15.4082 98.7214 15.8704 98.3947 16.1137C98.068 16.3501 97.6891 16.5447 97.2582 16.6976C96.8341 16.8506 96.3615 16.9687 95.8401 17.0521C95.3257 17.1355 94.7801 17.1773 94.2031 17.1773C93.7096 17.1773 93.1813 17.1425 92.6183 17.073C92.0622 17.0035 91.5339 16.8853 91.0334 16.7185C90.5329 16.5517 90.0915 16.3188 89.7092 16.0199C89.3269 15.714 89.0558 15.3769 88.8959 15.0085C88.736 14.6331 88.6561 14.2369 88.6561 13.8198C88.6561 13.6391 88.67 13.4445 88.6978 13.2359C88.7812 12.5756 88.9689 12.0473 89.2608 11.6511C89.5528 11.2549 89.9177 10.9038 90.3557 10.598C90.7936 10.2921 91.3114 10.0558 91.9092 9.88896C92.507 9.71518 93.1222 9.59006 93.7548 9.5136C94.3943 9.43714 95.0025 9.39891 95.5795 9.39891H99.625L99.6563 9.19037C99.6633 9.10696 99.6667 9.0305 99.6667 8.96098C99.6667 8.63428 99.5729 8.36318 99.3852 8.1477C99.1975 7.92526 98.8813 7.79319 98.4364 7.75148C97.9915 7.70978 97.498 7.68892 96.9558 7.68892C96.4622 7.68892 96.0174 7.69935 95.6212 7.7202C95.2319 7.7341 94.867 7.84532 94.5264 8.05386C94.1927 8.25544 93.9807 8.59605 93.8903 9.07568H89.24C89.4555 7.90788 89.9073 7.01814 90.5955 6.40643C91.2836 5.79473 92.0274 5.37419 92.8268 5.1448C93.6262 4.90846 94.3769 4.75206 95.079 4.67559C95.788 4.59218 96.6152 4.55047 97.5605 4.55047C99.5138 4.55047 100.935 4.7173 101.825 5.05096C102.722 5.37766 103.427 5.86772 103.942 6.52113C104.456 7.16758 104.713 7.93916 104.713 8.83586C104.713 9.0722 104.696 9.32244 104.661 9.58659L103.754 17H98.843L98.8952 16.5621C98.916 16.4022 98.9681 16.2354 99.0516 16.0616C99.135 15.8878 99.2358 15.7384 99.3539 15.6132L100.053 14.8625ZM95.6524 14.1014C95.9513 14.1014 96.2815 14.077 96.643 14.0284C97.0044 13.9797 97.3728 13.9067 97.7482 13.8094C98.1305 13.7052 98.4468 13.5731 98.697 13.4132C98.9473 13.2533 99.1141 13.0622 99.1975 12.8397L99.4269 12.1203H95.7671C95.496 12.1203 95.2458 12.1307 95.0164 12.1516C94.787 12.1724 94.5854 12.2176 94.4117 12.2871C94.2448 12.3566 94.1093 12.4574 94.005 12.5895C93.9007 12.7216 93.8347 12.8988 93.8069 13.1213C93.8 13.1699 93.7965 13.2186 93.7965 13.2672C93.7965 13.4271 93.8417 13.5696 93.932 13.6947C94.0224 13.8129 94.1579 13.9033 94.3387 13.9658C94.5264 14.0284 94.7349 14.0666 94.9643 14.0805C95.2006 14.0944 95.43 14.1014 95.6524 14.1014ZM115.38 10.7231C115.443 10.2087 115.474 9.77427 115.474 9.41976C115.474 8.83586 115.363 8.4466 115.14 8.25197C114.925 8.05038 114.407 7.94959 113.587 7.94959C112.85 7.94959 112.221 8.1338 111.699 8.50221C111.303 8.7872 111.025 9.21123 110.865 9.77427L109.979 17H104.932L106.444 4.66517H111.501L111.397 5.50973C111.383 5.56534 111.355 5.61052 111.314 5.64528L110.208 6.60454L110.406 6.7818L110.5 6.69838C110.737 6.45509 111.008 6.21528 111.314 5.97894C112.523 5.04053 114.052 4.57133 115.901 4.57133C117.792 4.57133 119.04 4.95017 119.645 5.70784C120.249 6.45857 120.552 7.51862 120.552 8.888C120.552 9.43714 120.51 10.0488 120.427 10.7231H115.38ZM128.328 17C126.117 17 124.738 16.6976 124.188 16.0929C123.639 15.4881 123.365 14.7165 123.365 13.7781C123.365 13.5279 123.382 13.2603 123.417 12.9753L124.001 8.21026H121.936L122.364 4.67559H122.916C123.25 4.67559 123.552 4.61651 123.824 4.49834C124.095 4.38017 124.331 4.21682 124.533 4.00828C124.741 3.7928 124.908 3.5356 125.033 3.2367C125.165 2.93085 125.252 2.5972 125.294 2.23574L125.502 0.494472H130.57L130.361 2.23574C130.319 2.59025 130.246 2.90305 130.142 3.17414C130.038 3.43829 129.895 3.66072 129.715 3.84145C129.534 4.01523 129.311 4.14731 129.047 4.23767C128.783 4.32109 128.463 4.36279 128.088 4.36279L128.046 4.67559H134.271L133.833 8.21026H129.047L128.589 11.8805C128.582 11.95 128.578 12.0195 128.578 12.089C128.578 12.4852 128.755 12.7598 129.11 12.9127C129.464 13.0656 129.899 13.1421 130.413 13.1421C131.018 13.1421 131.97 13.1386 133.27 13.1317L132.791 17C131.046 17 129.558 17 128.328 17Z" fill="white"/>
</svg>
